<svg width="286" height="256" viewBox="0 0 286 256" fill="none" xmlns="http://www.w3.org/2000/svg">
<path d="M285.148 45.7616H239.791V66.0469H258.232L265.131 72.5401L272.029 66.0469H285.148V45.7616Z" fill="#F5F5F5"/>
<path d="M250.662 54.8811C250.655 54.1278 250.351 53.404 249.808 52.8505C249.265 52.297 248.523 51.9536 247.726 51.887C246.928 51.8204 246.134 52.0355 245.496 52.4904C244.858 52.9453 244.423 53.6074 244.275 54.3477C244.145 55.0579 244.284 55.7886 244.669 56.4116C244.792 56.6087 244.946 56.7479 245.1 56.9566L246.948 59.2756C247.006 59.3382 247.077 59.3885 247.158 59.4229C247.238 59.4573 247.325 59.4752 247.413 59.4752C247.501 59.4752 247.588 59.4573 247.669 59.4229C247.749 59.3885 247.82 59.3382 247.878 59.2756L249.726 56.9856C249.894 56.8011 250.05 56.6075 250.194 56.4058C250.491 55.9458 250.653 55.4195 250.662 54.8811ZM247.447 56.2029C247.167 56.2041 246.892 56.1268 246.658 55.981C246.425 55.8352 246.242 55.6273 246.134 55.3838C246.026 55.1403 245.997 54.872 246.051 54.6129C246.105 54.3539 246.239 54.1158 246.437 53.9287C246.635 53.7416 246.887 53.6141 247.162 53.5621C247.437 53.5102 247.722 53.5363 247.982 53.637C248.241 53.7378 248.462 53.9087 248.618 54.1281C248.774 54.3475 248.857 54.6055 248.858 54.8695C248.858 55.2221 248.709 55.5604 248.445 55.8103C248.18 56.0602 247.822 56.2014 247.447 56.2029Z" fill="#E0E0E0"/>
<path d="M280.627 57.0435C280.627 57.1247 274.585 57.1942 267.126 57.1942C259.667 57.1942 253.625 57.1247 253.625 57.0435C253.625 56.9623 259.667 56.8928 267.126 56.8928C274.585 56.8928 280.627 56.9623 280.627 57.0435Z" fill="#E0E0E0"/>
<path d="M272.029 59.7799C272.029 59.8611 267.908 59.9306 262.827 59.9306C257.745 59.9306 253.625 59.8611 253.625 59.7799C253.625 59.6987 257.745 59.6234 262.827 59.6234C267.908 59.6234 272.029 59.6929 272.029 59.7799Z" fill="#E0E0E0"/>
<path d="M255.276 50.7416L255.892 51.9185L257.271 52.1098L256.273 53.0258L256.507 54.3187L255.276 53.7041L254.038 54.3187L254.278 53.0258L253.274 52.1098L254.653 51.9185L255.276 50.7416Z" fill="#E0E0E0"/>
<path d="M261.115 50.7416L261.73 51.9185L263.11 52.1098L262.112 53.0258L262.346 54.3187L261.115 53.7041L259.877 54.3187L260.117 53.0258L259.119 52.1098L260.499 51.9185L261.115 50.7416Z" fill="#E0E0E0"/>
<path d="M266.954 50.7416L267.57 51.9185L268.949 52.1098L267.952 53.0258L268.186 54.3187L266.954 53.7041L265.716 54.3187L265.956 53.0258L264.958 52.1098L266.338 51.9185L266.954 50.7416Z" fill="#E0E0E0"/>
<path d="M272.793 50.7416L273.409 51.9185L274.788 52.1098L273.791 53.0258L274.025 54.3187L272.793 53.7041L271.561 54.3187L271.795 53.0258L270.797 52.1098L272.177 51.9185L272.793 50.7416Z" fill="#EBEBEB"/>
<path d="M278.632 50.7416L279.248 51.9185L280.627 52.1098L279.63 53.0258L279.864 54.3187L278.632 53.7041L277.4 54.3187L277.634 53.0258L276.636 52.1098L278.016 51.9185L278.632 50.7416Z" fill="#EBEBEB"/>
<path d="M87.0146 3.02277H16.4901V34.5668H45.1618L55.8914 44.6601L66.6148 34.5668H87.0146V3.02277Z" fill="#F5F5F5"/>
<path d="M33.3916 17.2091C33.393 16.4851 33.217 15.7705 32.8772 15.121C32.5374 14.4714 32.0431 13.9044 31.4326 13.464C30.8221 13.0235 30.1118 12.7216 29.3572 12.5816C28.6025 12.4416 27.8236 12.4674 27.0813 12.6569C26.3389 12.8464 25.6529 13.1945 25.0767 13.6741C24.5006 14.1538 24.0497 14.7521 23.7592 15.4225C23.4687 16.0929 23.3464 16.8173 23.4018 17.5394C23.4572 18.2615 23.6888 18.9619 24.0786 19.5861C24.2696 19.8933 24.5098 20.1078 24.7562 20.4267L27.6572 24.0501C27.7409 24.1557 27.8497 24.2414 27.9748 24.3004C28.0999 24.3595 28.2379 24.3902 28.3778 24.3902C28.5178 24.3902 28.6558 24.3595 28.7809 24.3004C28.906 24.2414 29.0148 24.1557 29.0985 24.0501L31.9687 20.5195C32.2272 20.2278 32.4698 19.924 32.6955 19.6093C33.1555 18.8838 33.3961 18.0539 33.3916 17.2091ZM28.3902 19.2556C27.9553 19.2556 27.5301 19.1342 27.1685 18.9068C26.8069 18.6794 26.5251 18.3561 26.3587 17.978C26.1922 17.5998 26.1487 17.1836 26.2335 16.7821C26.3184 16.3807 26.5278 16.0119 26.8353 15.7224C27.1428 15.433 27.5346 15.2358 27.9612 15.156C28.3877 15.0761 28.8299 15.1171 29.2316 15.2738C29.6334 15.4304 29.9769 15.6957 30.2185 16.0361C30.4601 16.3764 30.5891 16.7766 30.5891 17.1859C30.5891 17.7348 30.3574 18.2613 29.945 18.6494C29.5326 19.0376 28.9733 19.2556 28.3902 19.2556Z" fill="#E0E0E0"/>
<path d="M79.9868 20.5717C79.9868 20.6529 70.5876 20.7224 58.9957 20.7224C47.4039 20.7224 37.9985 20.6529 37.9985 20.5717C37.9985 20.4905 47.3977 20.421 58.9957 20.421C70.5938 20.421 79.9868 20.5195 79.9868 20.5717Z" fill="#E0E0E0"/>
<path d="M66.621 24.8154C66.621 24.9024 60.2153 24.9661 52.3128 24.9661C44.4104 24.9661 37.9985 24.9024 37.9985 24.8154C37.9985 24.7284 44.4043 24.6647 52.3128 24.6647C60.2214 24.6647 66.621 24.7342 66.621 24.8154Z" fill="#E0E0E0"/>
<path d="M40.5671 10.7682L41.5218 12.6002L43.6652 12.8901L42.1131 14.3162L42.4826 16.328L40.5671 15.3772L38.6454 16.328L39.0149 14.3162L37.4628 12.8901L39.6062 12.6002L40.5671 10.7682Z" fill="#E0E0E0"/>
<path d="M49.6459 10.7682L50.6006 12.6002L52.7502 12.8901L51.1981 14.3162L51.5615 16.328L49.6459 15.3772L47.7242 16.328L48.0938 14.3162L46.5416 12.8901L48.6851 12.6002L49.6459 10.7682Z" fill="#E0E0E0"/>
<path d="M58.7248 10.7682L59.6856 12.6002L61.8291 12.8901L60.2769 14.3162L60.6403 16.328L58.7248 15.3772L56.8092 16.328L57.1726 14.3162L55.6205 12.8901L57.7639 12.6002L58.7248 10.7682Z" fill="#E0E0E0"/>
<path d="M67.8036 10.7682L68.7645 12.6002L70.908 12.8901L69.3558 14.3162L69.7254 16.328L67.8036 15.3772L65.8881 16.328L66.2515 14.3162L64.6993 12.8901L66.849 12.6002L67.8036 10.7682Z" fill="#EBEBEB"/>
<path d="M76.8886 10.7682L77.8433 12.6002L79.9868 12.8901L78.4408 14.3162L78.8042 16.328L76.8886 15.3772L74.9669 16.328L75.3365 14.3162L73.7843 12.8901L75.9278 12.6002L76.8886 10.7682Z" fill="#EBEBEB"/>
<path d="M249.486 80.1928C249.855 77.6535 246.055 75.5548 243.203 75.3519C241.842 75.2534 240.425 75.4447 239.132 75.0215C236.342 74.1055 235.221 70.7082 232.492 69.624C230.453 68.8124 228.107 69.5371 226.13 70.4705C224.152 71.4039 222.2 72.5865 219.97 72.7199C218.049 72.8358 215.967 72.1401 214.285 73.0503C213.053 73.7055 212.376 75.0679 211.206 75.8679C210.035 76.668 208.606 76.8187 207.202 76.8883C205.798 76.9578 204.35 76.9752 203.075 77.526C201.8 78.0767 200.741 79.3464 201.006 80.6392L249.486 80.1928Z" fill="#F5F5F5"/>
<path d="M55.9839 105.273C56.3596 102.739 52.5593 100.635 49.7014 100.438C48.3402 100.333 46.9235 100.53 45.6362 100.107C42.8399 99.1911 41.7189 95.788 38.9965 94.7096C36.9516 93.898 34.6048 94.6169 32.6277 95.5561C30.6506 96.4952 28.698 97.6721 26.4684 97.8055C24.5528 97.9214 22.4648 97.2257 20.7833 98.1301C19.5514 98.791 18.8739 100.148 17.7036 100.948C16.5333 101.748 15.0982 101.898 13.6939 101.974C12.2896 102.049 10.8421 102.055 9.56713 102.606C8.29214 103.157 7.2389 104.426 7.50375 105.725L55.9839 105.273Z" fill="#F5F5F5"/>
<path d="M36.4896 78.5637C36.7606 76.7027 33.9643 75.1664 31.8701 75.0098C30.8661 74.9345 29.8252 75.0794 28.8767 74.7664C26.8256 74.0939 26.0064 71.5951 23.9985 70.7951C22.5017 70.2153 20.7771 70.7313 19.3235 71.4212C17.8699 72.1111 16.4348 72.9749 14.8087 73.0735C13.3982 73.1605 11.8646 72.6677 10.6265 73.317C9.70879 73.7982 9.22837 74.7953 8.37838 75.3867C7.49381 75.8973 6.47159 76.1569 5.43421 76.1345C4.40171 76.1106 3.37365 76.2699 2.40382 76.6042C1.46144 77.01 0.685359 77.9434 0.882458 78.8941L36.4896 78.5637Z" fill="#EBEBEB"/>
<path d="M266.602 10.8319C266.88 8.97096 264.083 7.43463 261.983 7.2781C260.985 7.20273 259.944 7.34767 258.996 7.0346C256.945 6.3621 256.119 3.86339 254.117 3.06334C252.615 2.48359 250.89 2.99957 249.436 3.68947C247.983 4.37937 246.548 5.24319 244.928 5.34174C243.517 5.42871 241.984 4.93592 240.746 5.58524C239.828 6.06643 239.341 7.06359 238.497 7.65493C237.616 8.16335 236.599 8.42293 235.566 8.4028C234.531 8.37932 233.501 8.53861 232.529 8.8724C231.593 9.27822 230.817 10.2116 231.014 11.1914L266.602 10.8319Z" fill="#EBEBEB"/>
<path d="M261.607 102.449H210.349V255.357H261.607V102.449Z" fill="#F5F5F5"/>
<path d="M261.614 102.449H235.985V254.94H261.614V102.449Z" fill="#EBEBEB"/>
<path d="M234.309 87.4396H216.207V102.449H234.309V87.4396Z" fill="#F5F5F5"/>
<path d="M234.303 87.4396H229.991V102.449H234.303V87.4396Z" fill="#EBEBEB"/>
<path d="M206.081 102.449V101.574H263.11V102.449" fill="#E0E0E0"/>
<path d="M224.805 108.995H220.469V117.604H224.805V108.995Z" fill="#99E79B"/>
<path d="M235.985 120.99C235.985 121.077 230.244 121.152 223.167 121.152C216.09 121.152 210.349 121.077 210.349 120.99C210.349 120.903 216.09 120.821 223.167 120.821C230.244 120.821 235.985 120.897 235.985 120.99Z" fill="#E0E0E0"/>
<path d="M250.656 108.995H246.32V117.604H250.656V108.995Z" fill="#E0E0E0"/>
<path d="M261.835 120.99C261.835 121.077 256.095 121.152 249.018 121.152C241.941 121.152 236.206 121.077 236.206 120.99C236.206 120.903 241.941 120.821 249.018 120.821C256.095 120.821 261.835 120.897 261.835 120.99Z" fill="#E0E0E0"/>
<path d="M250.656 126.091H246.32V134.701H250.656V126.091Z" fill="#E0E0E0"/>
<path d="M261.835 138.086C261.835 138.173 256.095 138.249 249.018 138.249C241.941 138.249 236.206 138.173 236.206 138.086C236.206 137.999 241.941 137.918 249.018 137.918C256.095 137.918 261.835 137.993 261.835 138.086Z" fill="#E0E0E0"/>
<path d="M250.656 143.704H246.32V152.313H250.656V143.704Z" fill="#E0E0E0"/>
<path d="M261.835 155.699C261.835 155.786 256.095 155.861 249.018 155.861C241.941 155.861 236.206 155.786 236.206 155.699C236.206 155.612 241.941 155.531 249.018 155.531C256.095 155.531 261.835 155.6 261.835 155.699Z" fill="#E0E0E0"/>
<path d="M250.656 161.322H246.32V169.932H250.656V161.322Z" fill="#E0E0E0"/>
<path d="M261.835 173.312C261.835 173.404 256.095 173.474 249.018 173.474C241.941 173.474 236.206 173.404 236.206 173.312C236.206 173.219 241.941 173.149 249.018 173.149C256.095 173.149 261.835 173.219 261.835 173.312Z" fill="#E0E0E0"/>
<path d="M250.656 178.431H246.32V187.04H250.656V178.431Z" fill="#E0E0E0"/>
<path d="M261.835 190.42C261.835 190.513 256.095 190.582 249.018 190.582C241.941 190.582 236.206 190.513 236.206 190.42C236.206 190.327 241.941 190.258 249.018 190.258C256.095 190.258 261.835 190.327 261.835 190.42Z" fill="#E0E0E0"/>
<path d="M250.656 195.609H246.32V204.218H250.656V195.609Z" fill="#E0E0E0"/>
<path d="M250.656 213.013H246.32V221.622H250.656V213.013Z" fill="#E0E0E0"/>
<path d="M261.835 207.598C261.835 207.691 256.095 207.766 249.018 207.766C241.941 207.766 236.206 207.691 236.206 207.598C236.206 207.505 241.941 207.435 249.018 207.435C256.095 207.435 261.835 207.505 261.835 207.598Z" fill="#E0E0E0"/>
<path d="M224.805 126.352H220.469V134.961H224.805V126.352Z" fill="#99E79B"/>
<path d="M235.985 138.347C235.985 138.434 230.244 138.509 223.167 138.509C216.09 138.509 210.349 138.434 210.349 138.347C210.349 138.26 216.09 138.179 223.167 138.179C230.244 138.179 235.985 138.254 235.985 138.347Z" fill="#E0E0E0"/>
<path d="M224.805 143.71H220.469V152.319H224.805V143.71Z" fill="#99E79B"/>
<path d="M235.985 155.705C235.985 155.797 230.244 155.867 223.167 155.867C216.09 155.867 210.349 155.797 210.349 155.705C210.349 155.612 216.09 155.537 223.167 155.537C230.244 155.537 235.985 155.6 235.985 155.705Z" fill="#E0E0E0"/>
<path d="M224.805 161.073H220.469V169.682H224.805V161.073Z" fill="#99E79B"/>
<path d="M235.985 173.062C235.985 173.155 230.244 173.225 223.167 173.225C216.09 173.225 210.349 173.155 210.349 173.062C210.349 172.97 216.09 172.9 223.167 172.9C230.244 172.9 235.985 172.993 235.985 173.062Z" fill="#E0E0E0"/>
<path d="M224.805 178.431H220.469V187.04H224.805V178.431Z" fill="#99E79B"/>
<path d="M235.985 190.42C235.985 190.513 230.244 190.582 223.167 190.582C216.09 190.582 210.349 190.513 210.349 190.42C210.349 190.327 216.09 190.258 223.167 190.258C230.244 190.258 235.985 190.327 235.985 190.42Z" fill="#E0E0E0"/>
<path d="M224.805 195.788H220.469V204.398H224.805V195.788Z" fill="#99E79B"/>
<path d="M235.985 207.778C235.985 207.87 230.244 207.946 223.167 207.946C216.09 207.946 210.349 207.87 210.349 207.778C210.349 207.685 216.09 207.615 223.167 207.615C230.244 207.615 235.985 207.685 235.985 207.778Z" fill="#E0E0E0"/>
<path d="M224.805 213.146H220.469V221.755H224.805V213.146Z" fill="#99E79B"/>
<path d="M101.483 255.485H26.0556L25.723 143.281H101.156L101.483 255.485Z" fill="#EBEBEB"/>
<path d="M101.157 143.275H63.4429V255.485H101.157V143.275Z" fill="#E0E0E0"/>
<path d="M60.9792 121.187H34.3401V143.275H60.9792V121.187Z" fill="#EBEBEB"/>
<path d="M60.9792 121.187H54.6289V143.275H60.9792V121.187Z" fill="#E0E0E0"/>
<path d="M103.362 141.988H19.4406V143.275H103.362V141.988Z" fill="#E0E0E0"/>
<path d="M47.0036 152.91H40.6163V165.584H47.0036V152.91Z" fill="#D6F5D7"/>
<path d="M63.4429 170.558C63.4429 170.691 54.9984 170.801 44.583 170.801C34.1675 170.801 25.7292 170.691 25.7292 170.558C25.7292 170.424 34.1675 170.314 44.583 170.314C54.9984 170.314 63.4429 170.424 63.4429 170.558Z" fill="#E0E0E0"/>
<path d="M85.0437 152.91H78.6565V165.584H85.0437V152.91Z" fill="#F5F5F5"/>
<path d="M101.483 170.558C101.483 170.691 93.0385 170.801 82.6292 170.801C72.2199 170.801 63.7693 170.691 63.7693 170.558C63.7693 170.424 72.2137 170.314 82.6292 170.314C93.0446 170.314 101.483 170.424 101.483 170.558Z" fill="#EBEBEB"/>
<path d="M85.0437 178.071H78.6565V190.745H85.0437V178.071Z" fill="#F5F5F5"/>
<path d="M101.483 195.719C101.483 195.852 93.0385 195.957 82.6292 195.957C72.2199 195.957 63.7693 195.852 63.7693 195.719C63.7693 195.586 72.2137 195.475 82.6292 195.475C93.0446 195.475 101.483 195.603 101.483 195.719Z" fill="#EBEBEB"/>
<path d="M85.0437 203.992H78.6565V216.665H85.0437V203.992Z" fill="#F5F5F5"/>
<path d="M101.483 221.633C101.483 221.767 93.0385 221.877 82.6292 221.877C72.2199 221.877 63.7693 221.767 63.7693 221.633C63.7693 221.5 72.2137 221.39 82.6292 221.39C93.0446 221.39 101.483 221.5 101.483 221.633Z" fill="#EBEBEB"/>
<path d="M85.0437 229.906H78.6565V242.58H85.0437V229.906Z" fill="#F5F5F5"/>
<path d="M101.483 247.554C101.483 247.687 93.0385 247.792 82.6292 247.792C72.2199 247.792 63.7693 247.687 63.7693 247.554C63.7693 247.421 72.2137 247.31 82.6292 247.31C93.0446 247.31 101.483 247.421 101.483 247.554Z" fill="#EBEBEB"/>
<path d="M47.0036 178.454H40.6163V191.127H47.0036V178.454Z" fill="#D6F5D7"/>
<path d="M63.4429 196.101C63.4429 196.235 54.9984 196.345 44.583 196.345C34.1675 196.345 25.7292 196.235 25.7292 196.101C25.7292 195.968 34.1675 195.858 44.583 195.858C54.9984 195.858 63.4429 195.968 63.4429 196.101Z" fill="#E0E0E0"/>
<path d="M47.0036 203.998H40.6163V216.671H47.0036V203.998Z" fill="#D6F5D7"/>
<path d="M63.4429 221.645C63.4429 221.778 54.9984 221.883 44.583 221.883C34.1675 221.883 25.7292 221.778 25.7292 221.645C25.7292 221.512 34.1675 221.402 44.583 221.402C54.9984 221.402 63.4429 221.512 63.4429 221.645Z" fill="#E0E0E0"/>
<path d="M47.0036 229.541H40.6163V242.214H47.0036V229.541Z" fill="#D6F5D7"/>
<path d="M63.4429 247.2C63.4429 247.334 54.9984 247.438 44.583 247.438C34.1675 247.438 25.7292 247.334 25.7292 247.2C25.7292 247.067 34.1675 246.957 44.583 246.957C54.9984 246.957 63.4429 247.055 63.4429 247.2Z" fill="#E0E0E0"/>
<path d="M243.148 243.478C243.616 241.739 242.427 240.04 241.085 238.8C239.742 237.559 238.147 236.44 237.451 234.8C236.323 232.133 237.839 228.683 235.917 226.463C234.784 225.153 232.751 224.724 231.747 223.321C231.286 222.548 230.979 221.704 230.842 220.828C229.775 216.399 227.462 212.322 224.146 209.024C223.922 212.968 224.828 216.897 226.77 220.399C227.552 221.796 228.507 223.158 228.766 224.718C229.185 227.251 227.688 229.854 228.347 232.341C229.105 235.188 232.498 237.09 232.659 240.017C232.794 242.493 230.503 244.655 230.669 247.137C230.813 248.2 231.225 249.216 231.87 250.099C233.903 253.282 236.89 255.473 241.417 255.398L246.961 255.583L243.148 243.478Z" fill="#0D0C5D"/>
<g opacity="0.3">
<path d="M243.148 243.478C243.616 241.739 242.427 240.04 241.085 238.8C239.742 237.559 238.147 236.44 237.451 234.8C236.323 232.133 237.839 228.683 235.917 226.463C234.784 225.153 232.751 224.724 231.747 223.321C231.286 222.548 230.979 221.704 230.842 220.828C229.775 216.399 227.462 212.322 224.146 209.024C223.922 212.968 224.828 216.897 226.77 220.399C227.552 221.796 228.507 223.158 228.766 224.718C229.185 227.251 227.688 229.854 228.347 232.341C229.105 235.188 232.498 237.09 232.659 240.017C232.794 242.493 230.503 244.655 230.669 247.137C230.813 248.2 231.225 249.216 231.87 250.099C233.903 253.282 236.89 255.473 241.417 255.398L246.961 255.583L243.148 243.478Z" fill="black"/>
</g>
<path d="M247.946 255.583C248.453 255.656 248.97 255.644 249.473 255.549C250.086 255.463 250.689 255.321 251.272 255.125C252.076 254.857 252.827 254.465 253.496 253.966C253.899 253.657 254.214 253.259 254.413 252.806C254.577 252.305 254.66 251.783 254.66 251.259C254.67 250.694 254.713 250.131 254.789 249.571C254.899 248.975 255.129 248.405 255.467 247.89C256.119 246.812 257.21 245.786 257.561 244.319C257.912 242.852 257.665 241.316 257.407 239.745C257.148 238.174 256.902 236.475 257.536 234.846C258.17 233.217 259.347 231.738 259.957 229.901C260.566 228.063 260.277 226.04 260.406 224.068C260.442 223.067 260.687 222.082 261.127 221.17C261.577 220.242 262.199 219.372 262.685 218.399C263.671 216.433 263.843 214.207 264.114 212.021C264.244 210.92 264.373 209.812 264.508 208.688C264.593 207.558 264.799 206.439 265.124 205.348C265.501 204.249 265.945 203.171 266.455 202.119C266.709 201.574 266.915 201.009 267.071 200.432C267.166 199.839 267.226 199.241 267.249 198.641C267.311 197.435 267.261 196.227 267.102 195.029C266.954 193.823 266.72 192.629 266.584 191.423C266.584 191.353 266.584 191.278 266.584 191.214L266.553 190.977L266.325 191.081C265.152 191.646 264.132 192.458 263.344 193.452C262.569 194.424 261.947 195.496 261.497 196.635C260.573 198.873 260.265 201.226 259.772 203.464C259.422 205.681 258.65 207.819 257.493 209.778C256.877 210.705 256.15 211.557 255.503 212.462C254.818 213.346 254.349 214.361 254.13 215.436C253.804 217.645 255.097 219.581 254.826 221.535C254.698 222.495 254.354 223.418 253.816 224.242C253.311 225.077 252.719 225.854 252.159 226.631C251.586 227.389 251.087 228.194 250.668 229.037C250.278 229.863 250.048 230.749 249.991 231.652C249.855 233.391 250.12 235.084 249.991 236.655C249.837 238.156 249.37 239.614 248.617 240.945C247.952 242.232 247.201 243.391 246.579 244.516C246.269 245.057 245.99 245.612 245.741 246.18C245.515 246.712 245.352 247.266 245.254 247.832C245.087 248.816 245.073 249.818 245.211 250.806C245.355 252.186 245.903 253.5 246.794 254.604C246.93 254.768 247.081 254.921 247.244 255.062C247.355 255.171 247.476 255.27 247.607 255.357L247.927 255.566C247.532 255.268 247.171 254.932 246.85 254.563C245.994 253.457 245.474 252.152 245.347 250.789C245.222 249.813 245.247 248.825 245.421 247.855C245.524 247.304 245.687 246.764 245.907 246.244C246.147 245.705 246.437 245.16 246.757 244.603C247.373 243.49 248.137 242.33 248.821 241.038C249.595 239.687 250.076 238.205 250.237 236.678C250.385 235.066 250.126 233.391 250.237 231.675C250.296 230.801 250.524 229.944 250.909 229.147C251.319 228.32 251.81 227.53 252.375 226.787C252.935 226.011 253.539 225.24 254.056 224.387C254.617 223.53 254.976 222.569 255.109 221.57C255.38 219.483 254.099 217.511 254.432 215.482C254.646 214.453 255.1 213.48 255.762 212.636C256.378 211.749 257.13 210.897 257.758 209.946C258.94 207.957 259.729 205.782 260.086 203.528C260.56 201.273 260.893 198.948 261.804 196.751C262.24 195.644 262.841 194.601 263.591 193.655C264.343 192.699 265.322 191.921 266.449 191.382L266.19 191.249C266.19 191.313 266.19 191.388 266.19 191.458C266.332 192.681 266.566 193.875 266.713 195.07C266.867 196.248 266.916 197.437 266.861 198.623C266.836 199.206 266.779 199.786 266.689 200.363C266.532 200.921 266.326 201.466 266.073 201.992C265.558 203.053 265.112 204.143 264.736 205.256C264.403 206.362 264.197 207.499 264.12 208.647C263.985 209.772 263.853 210.885 263.726 211.987C263.461 214.178 263.289 216.369 262.34 218.271C261.872 219.216 261.25 220.086 260.788 221.042C260.337 221.989 260.084 223.008 260.043 224.045C259.926 226.057 260.203 228.028 259.624 229.843C259.045 231.657 257.838 233.095 257.228 234.782C256.618 236.469 256.846 238.261 257.111 239.803C257.376 241.345 257.647 242.904 257.29 244.296C256.932 245.687 255.916 246.708 255.245 247.821C254.901 248.354 254.669 248.944 254.561 249.56C254.487 250.127 254.448 250.698 254.444 251.27C254.443 251.783 254.362 252.293 254.204 252.783C254.019 253.211 253.725 253.589 253.348 253.885C252.695 254.381 251.961 254.772 251.173 255.044C250.599 255.249 250.005 255.402 249.4 255.502C249.027 255.563 248.65 255.596 248.272 255.601L247.946 255.583Z" fill="#263238"/>
<path d="M265.463 194.107C265.463 194.107 265.463 194.159 265.408 194.264L265.285 194.733C265.18 195.145 265.044 195.765 264.835 196.542C264.626 197.319 264.114 198.189 263.689 199.267C263.181 200.477 262.742 201.712 262.371 202.966C261.946 204.357 261.571 205.905 261.183 207.557C260.845 209.326 260.246 211.041 259.402 212.653C258.953 213.505 258.442 214.363 258.035 215.297C257.636 216.26 257.367 217.267 257.234 218.294C256.954 220.411 256.555 222.513 256.039 224.59C254.931 228.869 253.871 232.939 252.904 236.649C251.937 240.359 251.057 243.675 250.28 246.505C249.504 249.334 248.956 251.548 248.537 253.143C248.34 253.908 248.192 254.511 248.082 254.952C248.041 255.145 248.004 255.301 247.971 255.421C247.961 255.477 247.961 255.534 247.971 255.589C247.997 255.539 248.018 255.487 248.032 255.433C248.069 255.305 248.119 255.154 248.174 254.969C248.303 254.534 248.476 253.931 248.698 253.172L250.545 246.563L253.225 236.765L256.384 224.706C256.906 222.614 257.305 220.497 257.579 218.364C257.707 217.371 257.966 216.397 258.349 215.465C258.737 214.549 259.242 213.697 259.698 212.839C260.542 211.201 261.137 209.461 261.466 207.667C261.848 206.004 262.205 204.467 262.611 203.076C263.018 201.684 263.443 200.45 263.843 199.377C264.244 198.305 264.736 197.417 264.94 196.617C265.143 195.817 265.242 195.214 265.328 194.791C265.359 194.6 265.389 194.443 265.414 194.316C265.444 194.25 265.461 194.179 265.463 194.107Z" fill="#263238"/>
<path d="M245.956 255.247C249.855 253.74 251.808 247.948 250.884 244.081C249.96 240.214 247.866 236.504 248.069 232.544C248.229 229.501 249.757 226.561 249.467 223.523C249.085 219.43 245.458 215.795 246.141 211.731C246.523 209.453 248.235 207.493 248.482 205.198C248.784 202.38 246.85 199.847 245.821 197.186C244.244 193.127 244.798 188.634 244.718 184.298C244.638 179.961 243.634 175.202 239.976 172.57C238.824 176.083 237.438 178.402 236.995 183.312C236.834 185.052 238.467 188.716 238.165 192.588C237.986 194.907 237.746 197.226 237.549 199.545C237.352 201.864 237.149 204.085 237.672 206.288C238.072 207.975 238.904 209.569 239.12 211.285C239.545 214.514 237.826 217.714 238.066 220.961C238.276 223.709 239.877 226.271 239.853 229.031C239.822 232.904 236.6 236.487 237.389 240.296C237.771 242.18 239.113 243.844 239.274 245.757C239.391 247.247 238.781 248.719 238.867 250.209C239.009 252.604 243.443 255.067 245.987 255.27" fill="#0D0C5D"/>
<path d="M240.407 176.274C240.399 176.342 240.399 176.41 240.407 176.477C240.407 176.628 240.407 176.831 240.407 177.057C240.407 177.584 240.407 178.361 240.407 179.376C240.407 180.39 240.826 181.585 241.023 182.988C241.22 184.391 241.485 186.002 241.639 187.788C241.793 189.574 241.824 191.539 241.861 193.649C241.898 195.759 241.941 198.055 242.692 200.351C243.025 201.511 243.419 202.67 243.665 203.864C243.895 205.102 243.957 206.363 243.85 207.615C243.64 210.277 243.582 212.948 243.678 215.616C243.943 221.089 244.201 226.3 244.429 231.049C244.657 235.797 244.977 240.046 245.193 243.635L245.735 252.122C245.809 253.108 245.864 253.862 245.901 254.441C245.901 254.691 245.938 254.888 245.957 255.021C245.95 255.089 245.95 255.157 245.957 255.224C245.966 255.157 245.966 255.088 245.957 255.021C245.957 254.865 245.957 254.667 245.957 254.441C245.957 253.891 245.901 253.12 245.858 252.122C245.753 250.093 245.606 247.2 245.427 243.629C245.248 240.058 244.996 235.774 244.743 231.037C244.491 226.3 244.275 221.083 244.016 215.61C243.919 212.952 243.975 210.291 244.183 207.638C244.286 206.36 244.217 205.074 243.979 203.812C243.727 202.577 243.327 201.418 242.988 200.276C242.236 198.015 242.206 195.754 242.138 193.649C242.07 191.545 242.027 189.591 241.873 187.776C241.719 185.962 241.491 184.367 241.226 182.964C240.961 181.561 240.61 180.367 240.53 179.37C240.45 178.373 240.481 177.59 240.456 177.051C240.456 176.802 240.456 176.599 240.456 176.471C240.448 176.404 240.431 176.338 240.407 176.274Z" fill="#263238"/>
<path d="M207.3 255.247L117.861 255.201C112.695 255.198 107.742 253.264 104.09 249.824C100.439 246.384 98.3892 241.72 98.3909 236.858L98.434 25.8301C98.4316 23.4203 98.9339 21.0337 99.9124 18.8068C100.891 16.58 102.326 14.5566 104.136 12.8523C105.946 11.1481 108.095 9.79648 110.461 8.87482C112.827 7.95317 115.362 7.47956 117.922 7.48108L207.362 7.52746C212.528 7.53054 217.481 9.46466 221.132 12.9045C224.783 16.3444 226.833 21.0083 226.832 25.8706L226.788 236.898C226.789 239.308 226.286 241.694 225.307 243.92C224.328 246.146 222.892 248.169 221.083 249.873C219.273 251.577 217.124 252.928 214.76 253.85C212.395 254.773 209.86 255.247 207.3 255.247Z" fill="#455A64"/>
<path d="M207.922 13.8003L190.522 13.7249C189.956 13.7347 189.396 13.8496 188.877 14.0631C188.357 14.2765 187.888 14.5842 187.495 14.9687C187.102 15.3532 186.793 15.8068 186.586 16.3037C186.38 16.8006 186.279 17.3309 186.291 17.8643V20.8384C186.302 21.3728 186.201 21.9041 185.994 22.4017C185.787 22.8993 185.477 23.3535 185.083 23.7381C184.688 24.1227 184.217 24.4302 183.696 24.643C183.175 24.8557 182.615 24.9695 182.047 24.9778L148.103 24.8271C147.535 24.8143 146.976 24.6961 146.456 24.4791C145.937 24.2622 145.469 23.9508 145.078 23.563C144.687 23.1751 144.381 22.7183 144.178 22.2189C143.976 21.7195 143.88 21.1873 143.896 20.6529V17.6788C143.912 17.1444 143.817 16.6122 143.614 16.1128C143.411 15.6134 143.105 15.1566 142.714 14.7688C142.323 14.3809 141.855 14.0695 141.336 13.8526C140.817 13.6356 140.257 13.5174 139.689 13.5046H133.573L118.341 13.4409C116.542 13.4332 114.76 13.7592 113.095 14.4002C111.43 15.0412 109.916 15.9846 108.639 17.1766C107.362 18.3686 106.346 19.7857 105.651 21.3471C104.956 22.9085 104.594 24.5835 104.587 26.2764L103.657 232.991C103.651 236.406 105.084 239.684 107.644 242.104C110.203 244.525 113.678 245.891 117.306 245.902L206.875 246.29C208.674 246.299 210.456 245.973 212.121 245.333C213.785 244.693 215.3 243.75 216.577 242.558C217.854 241.367 218.87 239.95 219.565 238.389C220.26 236.828 220.622 235.153 220.629 233.46L221.559 26.7402C221.567 25.0478 221.22 23.3706 220.538 21.8043C219.857 20.2381 218.854 18.8135 217.588 17.6119C216.322 16.4103 214.816 15.4553 213.158 14.8013C211.5 14.1473 209.721 13.8071 207.922 13.8003Z" fill="#F5F5F5"/>
<path d="M169.913 207.227C169.808 209.726 169.71 212.068 169.63 214.01H182.497L180.92 206.572L169.913 207.227Z" fill="#F5F5F5"/>
<path d="M117.62 210.34L117.731 214.01H168.342C168.429 211.952 168.527 209.662 168.62 207.308L117.62 210.34Z" fill="#F5F5F5"/>
<path d="M181.567 206.537L183.15 214.01H206.869L206.586 205.047L181.567 206.537Z" fill="#F5F5F5"/>
<path d="M171.194 102.009L175.678 77.5318L163.932 76.7144V102.009H171.194Z" fill="#EBEBEB"/>
<path d="M116.561 196.757L103.811 201.458L103.774 209.957L116.943 209.169L116.561 196.757Z" fill="#F5F5F5"/>
<path d="M116.506 194.843L115.81 172.048H115.797V164.007L103.977 165.184L103.823 199.505L116.499 194.832L116.506 194.843Z" fill="#EBEBEB"/>
<path d="M115.797 146.058L104.07 144.603L103.984 163.363L115.797 162.186V146.058Z" fill="#F5F5F5"/>
<path d="M203.217 164.343L202.724 170.877L188.872 172.286L189.943 177.451L205.668 176.338L205.434 168.923L206.691 164.013L203.217 164.343Z" fill="#F5F5F5"/>
<path d="M178.253 178.286L189.297 177.497L186.895 165.897L177.249 166.813L178.253 178.286Z" fill="#F5F5F5"/>
<path d="M178.358 179.486L179.201 189.162L180.698 202.432L181.314 205.337L206.549 203.835L205.705 177.55L178.358 179.486Z" fill="#EBEBEB"/>
<path d="M134.928 133.808L135.901 135.373L116.438 146.058V171.399L136.979 170.03L176.559 166.268L175.112 149.658L137.293 145.02L137.546 143.223L174.951 147.82L172.488 119.708L135.47 123.059L135.347 121.859L172.389 118.497L171.114 103.829H135.501L104.23 109.186L104.076 142.776L115.92 144.249L134.928 133.808ZM118.433 168.981C118.433 168.981 118.581 148.081 118.433 147.304L134.312 139.368L136.4 167.914L118.433 168.981Z" fill="#F5F5F5"/>
<path d="M201.923 164.471L187.535 165.833L188.625 171.097L201.523 169.787L201.923 164.471Z" fill="#F5F5F5"/>
<path d="M170.092 202.751C170.049 203.847 170.006 204.943 169.963 206.015L180.667 205.377L180.119 202.78L170.092 202.751Z" fill="#F5F5F5"/>
<path d="M147.031 102.009L148.916 93.9618H163.292V76.668L118.341 73.5374V89.7702L104.298 92.7617L104.236 107.337L135.328 102.009H147.031Z" fill="#EBEBEB"/>
<path d="M177.052 53.9013L176.67 52.4172L193.836 46.0399L182.638 24.9314C182.434 24.9586 182.228 24.9741 182.022 24.9778L163.052 24.8908L163.569 54.4173L177.052 53.9013Z" fill="#F5F5F5"/>
<path d="M203.038 42.5847V13.7772L190.547 13.725C189.978 13.7318 189.416 13.8444 188.894 14.0565C188.372 14.2686 187.899 14.5759 187.503 14.9606C187.108 15.3454 186.797 15.8001 186.589 16.2984C186.381 16.7968 186.279 17.329 186.291 17.8644V20.8385C186.291 21.5037 186.124 22.1595 185.802 22.752C185.481 23.3446 185.015 23.857 184.443 24.2474L195.616 45.3559L203.038 42.5847Z" fill="#EBEBEB"/>
<path d="M138.507 43.8196L137.059 13.493H133.585L120.035 13.4351L114.227 40.5382L138.507 43.8196ZM135.427 16.5715L135.889 41.2687L117.842 38.7874L121.797 16.5715H135.427Z" fill="#F5F5F5"/>
<path d="M139.166 43.9123V44.1674C139.166 46.5327 139.252 50.7939 139.289 55.3507L162.929 54.4405L162.411 24.8734L148.103 24.827C147.535 24.8143 146.976 24.696 146.457 24.4791C145.937 24.2621 145.469 23.9508 145.078 23.5629C144.687 23.175 144.381 22.7183 144.179 22.2189C143.976 21.7195 143.88 21.1873 143.896 20.6528V17.6787C143.913 17.1443 143.817 16.6121 143.614 16.1127C143.411 15.6133 143.106 15.1566 142.715 14.7687C142.324 14.3808 141.855 14.0695 141.336 13.8525C140.817 13.6356 140.257 13.5173 139.689 13.5046H137.694L139.141 43.9181L139.166 43.9123Z" fill="#F5F5F5"/>
<path d="M112.317 40.2831L118.045 13.4235C114.469 13.484 111.059 14.8598 108.546 17.2564C106.033 19.6531 104.617 22.8803 104.6 26.2474L104.538 39.6338L104.6 39.2396L112.317 40.2831Z" fill="#F5F5F5"/>
<path d="M116.413 73.404L104.39 72.5634L104.31 90.9008L116.413 88.3267V73.404Z" fill="#F5F5F5"/>
<path d="M112.188 40.8745L104.538 39.8425L104.409 69.5371L106.053 69.6531L112.188 40.8745Z" fill="#F5F5F5"/>
<path d="M136.474 194.496L136.677 170.656L116.45 172.001L117.165 195.359L136.474 194.496Z" fill="#F5F5F5"/>
<path d="M140.194 188.994L168.841 201.911C169.186 193.469 169.488 185.579 169.457 185.098L170.073 185.063L170.375 184.483C170.788 184.675 170.788 184.675 170.572 190.432C170.455 193.643 170.283 197.916 170.11 202.189H180.021L178.561 189.226L176.615 166.876L139.184 170.436L140.194 188.994Z" fill="#F5F5F5"/>
<path d="M210.417 149.426L210.091 146.284L175.752 149.646L177.2 166.21L206.845 163.392L210.417 149.426Z" fill="#F5F5F5"/>
<path d="M163.292 95.7764H150.462L149.002 102.009H163.292V95.7764Z" fill="#F5F5F5"/>
<path d="M205.114 97.8809L172.987 95.788L171.681 102.93L173.03 118.433L206.906 115.366L205.114 97.8809ZM174.169 102.919L175.894 98.4085L203.796 100.072L205.385 112.966L175.087 116.352L174.169 102.919Z" fill="#F5F5F5"/>
<path d="M208.446 130.283L207.036 116.572L173.135 119.639L174.409 134.231L208.446 130.283Z" fill="#F5F5F5"/>
<path d="M116.98 210.381L103.83 211.163L103.774 210.357L103.756 214.01H117.091L116.98 210.381Z" fill="#F5F5F5"/>
<path d="M221.319 35.7785L221.51 36.2365L221.553 26.7402C221.568 23.3232 220.14 20.0405 217.584 17.6139C215.028 15.1874 211.553 13.8156 207.922 13.8003H203.66V42.3644L221.319 35.7785Z" fill="#EBEBEB"/>
<path d="M168.817 202.56L139.572 189.371L138.544 170.477L137.312 170.593L137.102 195.058L117.177 195.951V196.496L117.565 209.111L168.657 206.067C168.718 204.925 168.768 203.719 168.817 202.56ZM118.433 197.504L146.329 195.661L164.481 203.586L118.433 205.905V197.504Z" fill="#F5F5F5"/>
<path d="M213.004 67.479L214.199 60.8004C203.728 57.2755 202.989 46.985 203.02 43.866L196.177 46.4169L206.481 65.8905L213.004 67.479Z" fill="#F5F5F5"/>
<path d="M175.598 147.843L189.851 146.446L187.042 134.59L174.563 136.04L175.598 147.843Z" fill="#F5F5F5"/>
<path d="M206.352 79.1203L179.725 79.1145L177.514 78.9638L174.508 95.3764L206.112 97.4345L205.379 90.2978L208.489 79.7581L206.352 79.1203Z" fill="#F5F5F5"/>
<path d="M204.51 74.7143L204.843 66.8819L194.372 47.1068L178.148 53.1535L183.692 74.7143H204.51ZM193.75 49.5069L203.334 66.679L201.954 72.03L185.539 71.4503L181.437 55.2174L193.75 49.5069Z" fill="#F5F5F5"/>
<path d="M208.656 169.236L209.142 184.628L220.679 184.014L220.716 184.617L209.167 185.231L209.752 203.644L220.66 202.995L220.74 204.201L209.789 204.856L210.084 214.01H220.709L220.943 162.662L210.072 163.694L208.656 169.236Z" fill="#F5F5F5"/>
<path d="M138.531 44.4341L114.097 41.1353L107.987 69.798L138.636 71.9372C138.759 67.5138 138.655 53.9825 138.531 44.4341Z" fill="#EBEBEB"/>
<path d="M178.709 74.72H182.41L177.175 54.4985L163.581 55.0202L163.908 73.6823L178.709 74.72Z" fill="#F5F5F5"/>
<path d="M139.264 71.9662L163.286 73.6417L162.965 55.0435L139.32 55.9537C139.344 62.2613 139.363 68.9516 139.264 71.9662Z" fill="#F5F5F5"/>
<path d="M208.631 132.086L187.683 134.521L190.498 146.382L209.906 144.481L208.631 132.086Z" fill="#F5F5F5"/>
<path d="M214.31 60.2147L215.652 52.7186L221.436 53.1418L221.51 37.0017L203.648 43.6514C203.309 55.0028 210.885 58.9973 214.31 60.2147Z" fill="#EBEBEB"/>
<path d="M207.442 89.1847L208.169 96.2634L221.239 97.1156L221.301 82.535L210.362 79.2826L207.442 89.1847Z" fill="#F5F5F5"/>
<path d="M213.663 149.641L210.232 163.073L220.943 162.053L221.011 147.971C217.722 147.154 214.852 146.493 213.306 146.232L213.663 149.641Z" fill="#F5F5F5"/>
<path d="M206.426 74.9461L221.319 79.3696L221.356 71.4039L206.734 67.8442L206.426 74.9461Z" fill="#F5F5F5"/>
<path d="M213.121 144.365C214.322 144.539 216.595 144.991 221.017 146.104L221.153 115.314L210.232 116.299L213.121 144.365Z" fill="#F5F5F5"/>
<path d="M210.109 115.082L221.159 114.079L221.227 98.9302L208.36 98.0896L210.109 115.082Z" fill="#F5F5F5"/>
<path d="M215.542 60.5975C217.642 61.1772 219.588 61.6584 221.393 62.0004L221.43 54.3536L216.724 54.0115L215.542 60.5975Z" fill="#F5F5F5"/>
<path d="M214.254 67.8037L221.362 69.5429L221.393 62.6324C219.549 62.2922 217.564 61.8168 215.437 61.2062L214.254 67.8037Z" fill="#F5F5F5"/>
<path d="M220.74 204.201L220.66 202.995L209.752 203.644L209.167 185.231L220.715 184.617L220.685 184.037L209.142 184.652L208.655 169.265L210.072 163.717L220.943 162.685V162.076L210.232 163.097L213.663 149.664L213.306 146.238C214.852 146.516 217.722 147.177 221.011 147.977V146.093C216.589 144.997 214.316 144.545 213.115 144.353L210.226 116.271L221.147 115.285V114.067L210.097 115.07L208.348 98.0781L221.214 98.9187V97.0983L208.144 96.2519L207.417 89.1732L210.337 79.2711L221.301 82.5525V79.387L206.407 74.9636L206.709 67.8617L221.331 71.4213V69.5488L214.224 67.8095L215.406 61.2004C217.537 61.8111 219.523 62.2865 221.362 62.6266V62.0063C219.558 61.6642 217.611 61.2004 215.511 60.6033L216.693 54.0173L221.399 54.3594V53.1477L215.616 52.7245L214.273 60.2206C210.848 59.0032 203.272 55.0029 203.636 43.6573L221.498 37.0076V36.2365L221.307 35.7785L203.666 42.3471V13.783H203.02V42.5906L195.585 45.3617L184.443 24.2474C183.912 24.6064 183.298 24.841 182.651 24.9315L193.805 46.0284L176.639 52.4057L177.021 53.8898L163.569 54.4058L163.052 24.8793H162.436L162.953 54.4464L139.314 55.3566C139.277 50.7998 139.221 46.5386 139.19 44.1733V43.9182L137.743 13.5047H137.096L138.544 43.8312L114.227 40.5382L120.01 13.4177H118.353H118.045L112.317 40.2774L104.6 39.2338L104.538 39.628V39.8368L112.188 40.8687L106.029 69.6473L104.378 69.5314V72.5576L116.401 73.3983V88.3499L104.31 90.9008V92.7618L118.347 89.7703V73.5374L163.31 76.6738V93.9619H148.916L147.031 102.015H135.329L104.236 107.337V109.18L135.507 103.823H171.12L172.395 118.491L135.359 121.848L135.483 123.048L172.5 119.697L174.964 147.809L137.558 143.211L137.306 145.009L175.124 149.646L176.571 166.256L136.992 170.019L116.45 171.387V146.058L135.914 135.373L134.94 133.808L115.933 144.243L104.088 142.771V144.585L115.791 146.04V162.169L103.977 163.328V165.149L115.797 163.989V172.03L116.493 194.826L103.817 199.499V201.447L116.567 196.751L116.949 209.169L103.756 209.957V210.358L103.811 211.163L116.961 210.381L117.072 214.01H117.688L117.577 210.34L168.577 207.308C168.484 209.662 168.386 211.946 168.299 214.01H169.661C169.741 212.068 169.839 209.726 169.944 207.227L180.951 206.572L182.528 214.01H183.18L181.597 206.537L206.617 205.047L206.9 214.01H210.115M169.962 206.038C170.006 204.966 170.049 203.87 170.092 202.774L180.119 202.803L180.667 205.401L169.962 206.038ZM181.314 205.36L180.698 202.461L179.201 189.191L178.358 179.515L205.705 177.579L206.549 203.864L181.314 205.36ZM187.523 165.833L201.911 164.471L201.511 169.787L188.613 171.097L187.523 165.833ZM186.907 165.897L189.309 177.492L178.284 178.286L177.28 166.813L186.907 165.897ZM205.681 176.332L189.956 177.445L188.884 172.28L202.736 170.871L203.229 164.337L206.697 164.013L205.465 168.917L205.681 176.332ZM187.055 134.59L189.863 146.446L175.611 147.838L174.588 136.04L187.055 134.59ZM190.51 146.383L187.695 134.521L208.637 132.092L209.912 144.481L190.51 146.383ZM204.935 96.049L173.332 93.9908L176.337 77.5782L178.549 77.7348H205.175L207.313 78.3667L204.19 88.9297L204.935 96.049ZM203.032 43.8718C203.001 46.9908 203.728 57.2813 214.211 60.8062L213.004 67.4791L206.481 65.8905L196.177 46.4169L203.032 43.8718ZM194.409 47.0894L204.88 66.8645L204.547 74.6969H183.729L178.185 53.1361L194.409 47.0894ZM177.175 54.4985L182.411 74.7143H178.715L163.933 73.6823L163.606 55.0203L177.175 54.4985ZM162.941 55.0435L163.261 73.6418L139.24 71.9663C139.338 68.9516 139.32 62.2439 139.24 55.9537L162.941 55.0435ZM114.097 41.1296L138.531 44.4283C138.655 53.9768 138.759 67.508 138.636 71.9199L107.987 69.798L114.097 41.1296ZM175.691 77.5319L171.207 102.009H163.933V76.7144L175.691 77.5319ZM150.474 95.7707H163.304V102.009H149.015L150.474 95.7707ZM171.693 102.925L172.999 95.7823L205.126 97.8751L206.925 115.36L173.048 118.427L171.693 102.925ZM207.048 116.566L208.465 130.283L174.428 134.231L173.135 119.656L207.048 116.566ZM175.765 149.641L210.103 146.278L210.429 149.42L206.857 163.386L177.212 166.204L175.765 149.641ZM178.561 189.226L180.027 202.183H170.116C170.289 197.91 170.461 193.638 170.578 190.426C170.794 184.669 170.794 184.669 170.381 184.478L170.08 185.057L169.464 185.092C169.494 185.597 169.193 193.487 168.848 201.905L140.194 188.994L139.184 170.442L176.615 166.882L178.561 189.226ZM136.677 170.674L136.474 194.513L117.165 195.377L116.45 172.019L136.677 170.674ZM117.195 196.536V195.991L137.121 195.099L137.33 170.633L138.562 170.517L139.591 189.411L168.817 202.56C168.768 203.719 168.718 204.914 168.675 206.079L117.583 209.123L117.195 196.536Z" fill="#D6F5D7"/>
<path d="M146.329 195.672L118.433 197.516V205.946L164.475 203.598L146.329 195.672Z" fill="#E0E0E0"/>
<path d="M203.796 100.072L175.894 98.4084L174.169 102.919L175.112 116.352L205.409 112.966L203.796 100.072Z" fill="#E0E0E0"/>
<path d="M103.756 185.475L103.688 228.724V233.362C103.781 236.708 105.254 239.889 107.797 242.23C110.339 244.571 113.75 245.888 117.306 245.902L206.875 246.29C208.674 246.299 210.456 245.973 212.121 245.333C213.785 244.693 215.3 243.75 216.577 242.558C217.854 241.367 218.87 239.95 219.565 238.389C220.26 236.828 220.622 235.153 220.629 233.46L220.715 185.475H103.756Z" fill="#D6F5D7"/>
<path d="M136.425 42.8456L135.963 18.1426H122.332L118.378 40.3585L136.425 42.8456Z" fill="#E0E0E0"/>
<path d="M201.954 72.0416L203.34 66.6848L193.75 49.5127L181.437 55.2116L185.546 71.4561L201.954 72.0416Z" fill="#EBEBEB"/>
<path d="M118.433 147.304C118.581 148.081 118.433 168.981 118.433 168.981L136.4 167.914L134.312 139.368L118.433 147.304Z" fill="#E0E0E0"/>
<path d="M178.253 164.273L177.304 151.322L208.07 147.6V149.832L204.35 161.74L178.253 164.273Z" fill="#E0E0E0"/>
<path d="M206.937 197.267L206.549 188.82L179.516 190.055C178.811 190.085 178.109 189.945 177.477 189.649L139.117 171.41C138.68 171.202 138.31 170.889 138.043 170.504C137.776 170.118 137.621 169.673 137.595 169.213L132.378 73.9084C132.363 73.6822 132.4 73.4556 132.487 73.2443C132.575 73.033 132.71 72.8422 132.883 72.6851C133.055 72.5279 133.26 72.4064 133.485 72.3285C133.71 72.2506 133.95 72.2181 134.189 72.2329L150.628 73.3924V56.4638H152.556V73.6185C152.555 73.8372 152.506 74.0535 152.413 74.2538C152.32 74.4541 152.183 74.6342 152.013 74.7831C151.843 74.932 151.642 75.0464 151.423 75.1193C151.204 75.1922 150.971 75.2221 150.739 75.207L134.312 74.0475L139.517 169.126C139.526 169.267 139.574 169.403 139.656 169.521C139.738 169.638 139.852 169.734 139.985 169.798L178.345 188.037C178.679 188.194 179.05 188.268 179.423 188.252L206.691 187.005C206.915 186.995 207.139 187.027 207.35 187.098C207.561 187.17 207.755 187.28 207.921 187.422C208.087 187.564 208.221 187.736 208.317 187.927C208.412 188.118 208.467 188.325 208.477 188.536L208.871 197.191L206.937 197.267Z" fill="#D6F5D7"/>
<path d="M204.615 89.1441C204.629 86.9987 204.117 84.8793 203.117 82.9513C202.117 81.0234 200.657 79.3392 198.851 78.0304C197.044 76.7216 194.941 75.8236 192.705 75.4067C190.469 74.9898 188.161 75.0652 185.962 75.627C183.762 76.1889 181.73 77.2219 180.024 78.6454C178.319 80.0689 176.987 81.8443 176.131 83.8329C175.276 85.8215 174.92 87.9693 175.093 90.1086C175.265 92.2479 175.961 94.3206 177.126 96.1649L177.169 96.217C177.735 97.1098 178.444 97.7534 179.158 98.6984L187.732 109.383C187.98 109.694 188.301 109.946 188.671 110.12C189.04 110.294 189.447 110.384 189.86 110.384C190.273 110.384 190.68 110.294 191.05 110.12C191.419 109.946 191.74 109.694 191.988 109.383L200.414 98.8723C201.181 98.0197 201.897 97.1275 202.558 96.1996L202.588 96.1649C203.918 94.0369 204.618 91.6127 204.615 89.1441ZM189.832 95.1909C188.547 95.1909 187.291 94.8322 186.222 94.1601C185.154 93.488 184.321 92.5328 183.829 91.4152C183.337 90.2976 183.208 89.0678 183.459 87.8813C183.71 86.6949 184.329 85.6051 185.238 84.7497C186.146 83.8943 187.304 83.3118 188.565 83.0758C189.825 82.8398 191.132 82.9609 192.319 83.4238C193.507 83.8867 194.521 84.6707 195.235 85.6765C195.949 86.6823 196.331 87.8649 196.331 89.0746C196.332 90.6942 195.651 92.2481 194.436 93.395C193.221 94.5419 191.572 95.1878 189.851 95.1909H189.832Z" fill="#0D0C5D"/>
<path d="M125.129 203.824C125.129 202.855 124.892 201.9 124.437 201.032C123.981 200.164 123.319 199.406 122.502 198.817C121.685 198.229 120.735 197.826 119.725 197.639C118.716 197.452 117.674 197.486 116.681 197.74C115.689 197.993 114.771 198.458 114 199.1C113.229 199.741 112.626 200.541 112.236 201.437C111.847 202.333 111.682 203.302 111.755 204.268C111.828 205.234 112.136 206.171 112.656 207.007C112.915 207.418 113.235 207.708 113.561 208.166L117.448 213.013C117.563 213.15 117.71 213.261 117.878 213.338C118.045 213.414 118.229 213.454 118.415 213.454C118.601 213.454 118.785 213.414 118.952 213.338C119.12 213.261 119.267 213.15 119.382 213.013L123.201 208.241C123.549 207.855 123.874 207.451 124.174 207.03C124.794 206.062 125.124 204.954 125.129 203.824ZM118.433 206.566C117.849 206.567 117.278 206.405 116.792 206.1C116.306 205.796 115.927 205.362 115.703 204.854C115.479 204.347 115.42 203.788 115.533 203.249C115.647 202.709 115.928 202.214 116.341 201.825C116.754 201.437 117.28 201.172 117.853 201.065C118.426 200.958 119.02 201.014 119.559 201.224C120.098 201.435 120.559 201.792 120.883 202.25C121.207 202.707 121.379 203.245 121.378 203.795C121.378 204.53 121.067 205.235 120.515 205.754C119.963 206.274 119.214 206.566 118.433 206.566Z" fill="#0D0C5D"/>
<path d="M205.945 208.357C205.945 208.439 189.235 208.508 168.626 208.508C148.017 208.508 131.3 208.439 131.3 208.357C131.3 208.276 148.011 208.207 168.626 208.207C189.241 208.207 205.945 208.241 205.945 208.357Z" fill="#263238"/>
<path d="M169.661 214.01C169.661 214.097 161.081 214.161 150.499 214.161C139.917 214.161 131.331 214.097 131.331 214.01C131.331 213.923 139.911 213.859 150.499 213.859C161.087 213.859 169.661 213.929 169.661 214.01Z" fill="#263238"/>
<path d="M134.737 195.197L136.018 197.649L138.889 198.044L136.813 199.945L137.306 202.641L134.737 201.371L132.169 202.641L132.655 199.945L130.58 198.044L133.45 197.649L134.737 195.197Z" fill="#0D0C5D"/>
<path d="M146.896 195.197L148.183 197.649L151.053 198.044L148.971 199.945L149.464 202.641L146.896 201.371L144.327 202.641L144.82 199.945L142.738 198.044L145.614 197.649L146.896 195.197Z" fill="#0D0C5D"/>
<path d="M159.054 195.197L160.341 197.649L163.212 198.044L161.136 199.945L161.623 202.641L159.054 201.371L156.486 202.641L156.978 199.945L154.903 198.044L157.773 197.649L159.054 195.197Z" fill="#0D0C5D"/>
<path d="M171.219 195.197L172.5 197.649L175.37 198.044L173.295 199.945L173.787 202.641L171.219 201.371L168.651 202.641L169.137 199.945L167.061 198.044L169.932 197.649L171.219 195.197Z" fill="#0D0C5D"/>
<path d="M183.378 195.197L184.665 197.649L187.535 198.044L185.459 199.945L185.946 202.641L183.378 201.371L180.809 202.641L181.302 199.945L179.22 198.044L182.096 197.649L183.378 195.197Z" fill="#E0E0E0"/>
<path d="M155.888 224.99C155.888 225.077 151.22 225.141 145.461 225.141C139.702 225.141 135.033 225.077 135.033 224.99C135.033 224.903 139.702 224.84 145.461 224.84C151.22 224.84 155.888 224.909 155.888 224.99Z" fill="#E0E0E0"/>
<path d="M209.475 229.935C209.475 230.017 192.807 230.086 172.254 230.086C151.7 230.086 135.033 230.017 135.033 229.935C135.033 229.854 151.663 229.779 172.254 229.779C192.844 229.779 209.475 229.848 209.475 229.935Z" fill="#E0E0E0"/>
<path d="M121.575 233.35C125.085 233.35 127.931 230.672 127.931 227.367C127.931 224.063 125.085 221.384 121.575 221.384C118.064 221.384 115.218 224.063 115.218 227.367C115.218 230.672 118.064 233.35 121.575 233.35Z" fill="#F5F5F5"/>
<path d="M122.32 227.199C122.686 227.057 122.998 226.816 123.218 226.506C123.437 226.197 123.554 225.832 123.552 225.46C123.556 225.23 123.512 225.001 123.422 224.787C123.332 224.572 123.198 224.377 123.028 224.211C122.858 224.046 122.655 223.913 122.43 223.822C122.206 223.73 121.964 223.681 121.72 223.677C121.475 223.673 121.232 223.715 121.004 223.8C120.777 223.884 120.569 224.01 120.393 224.17C120.217 224.33 120.077 224.522 119.979 224.733C119.882 224.944 119.83 225.172 119.826 225.402C119.819 225.768 119.926 226.127 120.134 226.436C120.342 226.746 120.642 226.991 120.996 227.141C118.119 227.518 118.218 230.451 118.218 230.451L124.993 230.55C124.993 230.55 125.153 227.634 122.32 227.199Z" fill="#E0E0E0"/>
<path d="M162.639 240.087C162.555 240.085 162.475 240.051 162.417 239.994L159.338 236.968C159.309 236.941 159.286 236.909 159.27 236.874C159.255 236.838 159.246 236.8 159.246 236.762C159.246 236.724 159.255 236.686 159.27 236.651C159.286 236.615 159.309 236.583 159.338 236.556C159.366 236.529 159.399 236.508 159.436 236.493C159.473 236.478 159.513 236.471 159.553 236.471C159.593 236.471 159.633 236.478 159.67 236.493C159.707 236.508 159.741 236.529 159.769 236.556L162.633 239.362L165.441 236.608C165.5 236.555 165.578 236.525 165.66 236.525C165.742 236.525 165.82 236.555 165.879 236.608C165.908 236.635 165.931 236.667 165.946 236.703C165.962 236.738 165.97 236.776 165.97 236.814C165.97 236.852 165.962 236.89 165.946 236.926C165.931 236.961 165.908 236.993 165.879 237.02L162.885 239.994C162.855 240.027 162.817 240.052 162.774 240.068C162.731 240.084 162.685 240.091 162.639 240.087Z" fill="#263238"/>
<path d="M55.0168 47.1878C55.5341 47.0777 56.1685 47.0545 56.4519 46.6081C56.7352 46.1617 56.3841 45.5065 55.916 45.1529C55.4479 44.7992 54.8689 44.5326 54.5979 44.0282C54.4747 43.7213 54.4366 43.3899 54.4873 43.0653C54.538 42.7407 54.6757 42.4336 54.8874 42.173C55.2292 41.6667 55.6861 41.2381 56.225 40.9179C56.764 40.5977 57.3716 40.394 58.0042 40.3214C58.6369 40.2487 59.2787 40.309 59.8836 40.4979C60.4885 40.6867 61.0414 40.9994 61.5025 41.4135L62.9869 41.2918C63.1934 42.9216 63.181 44.5695 62.95 46.1964C62.7051 47.8377 61.8095 49.331 60.4431 50.3764C59.8622 50.8097 59.1455 51.0502 58.4044 51.0605C58.0353 51.0603 57.6736 50.9637 57.3593 50.7815C57.0451 50.5993 56.7907 50.3387 56.6243 50.0286C56.4796 49.7134 56.4678 49.3581 56.5914 49.0351C56.7149 48.712 56.9646 48.4453 57.2895 48.2893C56.5149 48.5048 55.7057 48.5892 54.8997 48.5386C54.765 48.5372 54.6322 48.508 54.5109 48.4528C54.3895 48.3977 54.2826 48.3182 54.1976 48.2198C53.9204 47.7675 54.4809 47.298 55.0168 47.1878Z" fill="#263238"/>
<path d="M63.5291 48.672C62.5652 46.5326 61.8047 44.317 61.2563 42.0513C60.7038 39.7781 60.7609 37.4111 61.4226 35.1639C61.5335 34.8276 62.5066 32.555 62.8824 32.5724C63.1472 32.5724 62.5867 34.6769 62.7345 34.8914C64.0784 36.9513 64.723 39.3478 64.5823 41.7614C64.5041 44.0949 64.1487 46.4128 63.5229 48.672" fill="#263238"/>
<path d="M72.343 71.6125C68.5181 71.7401 64.2805 65.0614 64.0587 61.4727L62.7345 39.8424C62.1801 34.045 65.3091 28.9084 71.4807 28.549H72.0536C74.8358 28.5392 77.5202 29.5145 79.574 31.2811C81.6278 33.0478 82.9008 35.4767 83.1404 38.0858C83.59 43.1122 84.015 48.6778 83.9904 51.3736C83.9411 56.9623 78.0035 57.8493 78.0035 57.8493C78.0035 57.8493 78.0528 59.148 78.1328 60.7828C78.3114 64.4642 78.0404 72.9575 74.1293 73.0735L72.343 71.6125Z" fill="#FFBE9D"/>
<path d="M77.9913 57.8436C75.2501 57.8468 72.5653 57.1104 70.2551 55.7217C70.2551 55.7217 72.1584 59.7799 78.0775 59.2581L77.9913 57.8436Z" fill="#EB996E"/>
<path d="M81.2188 42.7006C81.2222 42.9083 81.1389 43.109 80.9869 43.2596C80.835 43.4103 80.6263 43.4989 80.4058 43.5064C80.298 43.5143 80.1896 43.5019 80.0869 43.4698C79.9843 43.4378 79.8895 43.3868 79.808 43.3199C79.7266 43.2529 79.6602 43.1714 79.6126 43.08C79.5651 42.9885 79.5374 42.8891 79.5311 42.7875C79.5278 42.6832 79.5464 42.5793 79.5858 42.4818C79.6252 42.3842 79.6847 42.2949 79.7608 42.219C79.8368 42.1431 79.9281 42.082 80.0292 42.0393C80.1304 41.9966 80.2395 41.9731 80.3503 41.9701C80.4588 41.9622 80.5678 41.9751 80.6709 42.0079C80.774 42.0407 80.8689 42.0928 80.9501 42.161C81.0312 42.2292 81.0968 42.3122 81.143 42.4049C81.1892 42.4977 81.215 42.5982 81.2188 42.7006Z" fill="#263238"/>
<path d="M81.8655 40.4048C81.7608 40.5091 81.1203 40.0627 80.2087 40.0685C79.2971 40.0743 78.6257 40.5033 78.5272 40.399C78.4286 40.2946 78.5888 40.1671 78.8783 39.9642C79.2725 39.7066 79.7411 39.569 80.221 39.5699C80.6936 39.5665 81.1552 39.7046 81.5391 39.9642C81.8224 40.1671 81.921 40.3584 81.8655 40.4048Z" fill="#263238"/>
<path d="M72.9589 42.9963C72.9592 43.2047 72.8743 43.4052 72.7218 43.5563C72.5693 43.7074 72.3609 43.7975 72.1397 43.8079C72.0319 43.8158 71.9235 43.8034 71.8209 43.7713C71.7183 43.7393 71.6235 43.6883 71.542 43.6214C71.4606 43.5544 71.3941 43.4729 71.3466 43.3815C71.299 43.2901 71.2713 43.1906 71.2651 43.089C71.2601 42.8809 71.3428 42.6793 71.4951 42.5284C71.6475 42.3774 71.857 42.2893 72.0781 42.2832C72.1859 42.2745 72.2945 42.2861 72.3975 42.3174C72.5004 42.3487 72.5957 42.3991 72.6778 42.4655C72.7598 42.5319 72.8269 42.6131 72.8752 42.7042C72.9235 42.7953 72.9519 42.8946 72.9589 42.9963Z" fill="#263238"/>
<path d="M72.9588 40.8107C72.8541 40.915 72.2074 40.4686 71.2958 40.4744C70.3842 40.4802 69.719 40.9092 69.6205 40.8049C69.5219 40.7005 69.6759 40.573 69.9654 40.3701C70.3587 40.1108 70.828 39.973 71.3081 39.9758C71.7827 39.9724 72.2462 40.1104 72.6324 40.3701C72.8911 40.544 72.9588 40.7353 72.9588 40.8107Z" fill="#263238"/>
<path d="M76.2296 47.3675C76.708 47.2208 77.2052 47.135 77.7078 47.1125C77.9419 47.1125 78.1636 47.0429 78.2006 46.8922C78.22 46.6661 78.1663 46.4397 78.0466 46.2428C77.8248 45.7153 77.5908 45.1587 77.3506 44.5732C76.3836 42.202 75.6814 40.2483 75.7861 40.2135C75.8908 40.1787 76.7531 42.0745 77.7201 44.4456C77.948 45.0254 78.1759 45.6051 78.3853 46.1269C78.5309 46.3908 78.5745 46.6941 78.5085 46.9849C78.475 47.062 78.4231 47.1308 78.3569 47.1861C78.2907 47.2414 78.212 47.2816 78.1267 47.3038C77.9982 47.3379 77.8658 47.3573 77.7325 47.3618C77.2335 47.4201 76.729 47.4221 76.2296 47.3675Z" fill="#263238"/>
<path d="M73.575 47.9705C73.7228 47.9705 73.7228 48.8923 74.5728 49.5532C75.4228 50.2141 76.4822 50.133 76.4883 50.2315C76.4945 50.3301 76.2543 50.417 75.8047 50.4286C75.225 50.4387 74.6601 50.256 74.2094 49.9127C73.7788 49.5807 73.5008 49.1051 73.4333 48.585C73.3717 48.1966 73.4826 47.9647 73.575 47.9705Z" fill="#263238"/>
<path d="M72.8728 37.2974C72.7804 37.5293 71.8688 37.4191 70.8032 37.5467C69.7377 37.6742 68.863 37.9467 68.7214 37.738C68.6598 37.6394 68.8076 37.4191 69.1587 37.193C69.6215 36.9101 70.1494 36.7352 70.6985 36.6829C71.2455 36.617 71.8013 36.6767 72.3184 36.8568C72.7126 37.0017 72.9097 37.1872 72.8728 37.2974Z" fill="#263238"/>
<path d="M81.4774 37.5524C81.3172 37.7437 80.689 37.5524 79.9375 37.5524C79.1861 37.5524 78.5394 37.6858 78.3915 37.4828C78.3299 37.3843 78.4285 37.1872 78.7057 37.0017C79.0716 36.7779 79.5014 36.6647 79.9375 36.677C80.3805 36.6856 80.8102 36.8211 81.1694 37.0654C81.4589 37.2567 81.5821 37.4539 81.4774 37.5524Z" fill="#263238"/>
<path d="M63.2457 43.976C63.1472 43.9355 59.1621 42.8571 59.3099 46.6777C59.4577 50.4982 63.4983 49.5764 63.4983 49.4604C63.4983 49.3445 63.2457 43.976 63.2457 43.976Z" fill="#FFBE9D"/>
<path d="M62.2049 48.0575C62.2049 48.0575 62.1371 48.1038 62.0201 48.1618C61.8496 48.2234 61.6609 48.2234 61.4904 48.1618C61.223 48.0125 61.0024 47.7992 60.8509 47.5436C60.6995 47.288 60.6226 46.9992 60.6281 46.7066C60.6033 46.3805 60.6581 46.0533 60.7882 45.7501C60.8204 45.6292 60.884 45.5177 60.9732 45.4257C61.0624 45.3336 61.1745 45.2638 61.2994 45.2225C61.38 45.1999 61.4664 45.2044 61.5439 45.235C61.6214 45.2657 61.6852 45.3207 61.7244 45.3906C61.786 45.495 61.7614 45.5703 61.7799 45.5761C61.7983 45.5819 61.8661 45.5124 61.8291 45.3558C61.8024 45.2603 61.7415 45.1763 61.6567 45.1181C61.5999 45.0807 61.5359 45.0543 61.4682 45.0404C61.4006 45.0264 61.3306 45.0253 61.2625 45.037C61.098 45.0744 60.9463 45.1504 60.8214 45.2579C60.6965 45.3653 60.6024 45.5007 60.548 45.6515C60.3907 45.9888 60.321 46.3564 60.3447 46.724C60.3383 47.0645 60.4381 47.3992 60.6319 47.6868C60.8257 47.9743 61.1049 48.202 61.4349 48.3415C61.541 48.3625 61.6505 48.3625 61.7565 48.3415C61.8625 48.3206 61.9628 48.2791 62.0509 48.2198C62.1987 48.1502 62.2172 48.0633 62.2049 48.0575Z" fill="#EB996E"/>
<path d="M80.2086 31.8651C80.8246 31.4941 78.7797 29.5751 77.129 28.9664C74.6652 28.0272 70.8896 27.5402 68.6722 28.2359C65.999 29.0708 63.8063 30.4332 62.556 32.8043C61.3602 35.2217 60.8671 37.8944 61.127 40.5497C61.1294 41.3665 61.3656 42.1676 61.8107 42.8687C62.4266 43.692 63.5291 44.1731 63.5353 45.3442C63.5279 45.5575 63.566 45.7701 63.6475 45.9693C63.729 46.1684 63.8521 46.3502 64.0096 46.5037C64.7857 47.211 65.6603 46.5037 66.0483 45.7616C66.8675 44.2253 66.886 42.4397 66.8798 40.7237C66.95 39.5021 66.8064 38.278 66.4548 37.1002C66.2269 36.4741 65.882 35.8828 65.6911 35.2451C65.5733 34.931 65.5299 34.5965 65.564 34.265C65.598 33.9336 65.7087 33.6131 65.8882 33.3261C65.9813 33.2084 66.0865 33.0996 66.2023 33.0014C66.7455 32.5135 67.4169 32.1704 68.1476 32.0074C68.8782 31.8444 69.6417 31.8673 70.3599 32.0738C72.6819 32.7405 76.6362 33.7145 77.6217 32.9435C78.3282 32.4603 78.918 31.8419 79.3525 31.1289L80.2086 31.8651Z" fill="#263238"/>
<path d="M68.863 27.6968C69.9556 27.28 71.1253 27.0715 72.3042 27.0834C73.4831 27.0954 74.6478 27.3275 75.7306 27.7664C76.3102 27.9881 76.8363 28.3175 77.2776 28.7348C77.7189 29.1522 78.0663 29.649 78.2991 30.1955C78.6871 31.3144 78.2436 32.729 77.1042 33.216L77.0303 33.2682C75.3241 33.8885 74.1908 33.7146 72.4354 33.2276C70.9633 32.816 69.6329 32.0275 68.1238 31.6217C66.5438 31.1872 64.8614 31.2094 63.2949 31.6855C64.7465 29.9186 66.667 28.5429 68.863 27.6968Z" fill="#263238"/>
<path d="M63.7632 31.1115C64.3707 30.8297 65.0331 30.6679 65.7095 30.6361C66.4431 30.6221 67.1727 30.7401 67.8591 30.9839C68.7016 31.2976 69.5153 31.6757 70.2921 32.1144C71.0828 32.556 71.9061 32.9435 72.7558 33.2739C73.4649 33.5421 74.2214 33.6817 74.9855 33.6855C75.5016 33.6897 76.0137 33.6011 76.4945 33.4246C76.6741 33.3674 76.8396 33.2767 76.9811 33.158C76.3454 33.3819 75.6703 33.4901 74.9917 33.4768C74.2582 33.4431 73.5368 33.2881 72.8605 33.0188C72.0278 32.682 71.2193 32.2947 70.4399 31.8593C69.658 31.4141 68.833 31.0395 67.9762 30.7404C67.2534 30.5002 66.4871 30.3977 65.7219 30.439C65.2069 30.4679 64.7037 30.5961 64.2436 30.8158C64.0618 30.8789 63.8975 30.98 63.7632 31.1115Z" fill="#455A64"/>
<path d="M65.4138 29.7954C65.9932 29.5896 66.6055 29.4778 67.2247 29.465C67.8916 29.4771 68.5517 29.5947 69.1772 29.8128C69.9466 30.091 70.6818 30.4467 71.3699 30.8738C72.1152 31.3144 72.8173 31.7666 73.4949 32.126C74.0782 32.4549 74.6978 32.7232 75.3427 32.9261C75.7876 33.0604 76.2495 33.1384 76.7162 33.158C76.8874 33.1761 77.0608 33.1643 77.2274 33.1232C76.6135 33.0382 76.0079 32.9063 75.4166 32.729C74.786 32.5058 74.1796 32.2262 73.6057 31.8941C72.9529 31.5231 72.263 31.0709 71.5054 30.6245C70.8051 30.1858 70.0526 29.8259 69.2634 29.5519C68.6027 29.335 67.9057 29.2329 67.2062 29.2505C66.736 29.2672 66.2728 29.3635 65.8388 29.5346C65.6795 29.5928 65.5347 29.6817 65.4138 29.7954Z" fill="#455A64"/>
<path d="M74.85 28.1896C74.85 28.1896 75.0594 28.4621 75.4289 28.8447C75.925 29.3282 76.3497 29.8722 76.6916 30.4622C77.0224 31.0482 77.1818 31.7065 77.1536 32.3696C77.1228 32.8797 76.9811 33.1812 77.0242 33.1986C77.0673 33.216 77.2768 32.9377 77.3753 32.3928C77.4734 31.6817 77.3311 30.9596 76.9688 30.3289C76.6146 29.7135 76.1475 29.1619 75.5891 28.6998C75.1703 28.3461 74.8808 28.1606 74.85 28.1896Z" fill="#455A64"/>
<path d="M77.7571 29.8998C77.8489 30.4755 77.8655 31.0596 77.8064 31.6391C77.6484 32.2103 77.4124 32.7598 77.1042 33.2739C77.1042 33.2739 77.3198 33.187 77.5477 32.9145C77.8339 32.5531 78.0278 32.1345 78.1144 31.6912C78.2023 31.2472 78.1749 30.7897 78.0343 30.3578C77.9234 30.0563 77.7879 29.8824 77.7571 29.8998Z" fill="#455A64"/>
<path d="M61.0038 40.6889C60.8731 41.229 60.89 41.7915 61.0531 42.3238C61.1231 42.8812 61.3873 43.4011 61.8045 43.8021C61.8784 43.7558 61.5458 43.118 61.361 42.26C61.3018 41.7258 61.182 41.1991 61.0038 40.6889Z" fill="#0D0C5D"/>
<path d="M56.8401 217.216L57.456 229.767C57.456 229.767 44.1025 234.539 43.967 236.863L69.8363 236.672L69.7808 217.088L56.8401 217.216Z" fill="#455A64"/>
<path d="M65.4201 228.648C65.6801 228.714 65.9037 228.871 66.0456 229.086C66.1875 229.301 66.2369 229.559 66.1838 229.808C66.1208 230.046 65.9626 230.252 65.7423 230.382C65.5219 230.513 65.2564 230.559 65.0013 230.509C64.7372 230.435 64.5117 230.271 64.3684 230.05C64.225 229.828 64.174 229.564 64.2252 229.309C64.3235 229.072 64.5153 228.879 64.7608 228.771C65.0063 228.663 65.2865 228.648 65.5433 228.73" fill="#E0E0E0"/>
<path d="M69.8238 236.672L69.7376 234.701L44.9524 235.605C44.9524 235.605 43.8006 236.087 43.9361 236.846L69.8238 236.672Z" fill="#D6F5D7"/>
<path d="M57.0063 229.646C57.0063 229.762 57.6222 229.814 58.269 230.191C58.9157 230.567 59.2298 231.066 59.3407 231.02C59.4515 230.973 59.2668 230.283 58.4968 229.86C57.7269 229.437 56.9755 229.535 57.0063 229.646Z" fill="#263238"/>
<path d="M54.2963 230.718C54.2963 230.834 54.8198 231.037 55.251 231.536C55.6821 232.034 55.8115 232.567 55.9408 232.562C56.0702 232.556 56.1379 231.878 55.5897 231.269C55.0415 230.66 54.3024 230.608 54.2963 230.718Z" fill="#263238"/>
<path d="M52.781 233.791C52.898 233.791 53.0643 233.211 52.7379 232.567C52.4114 231.924 51.814 231.669 51.7586 231.767C51.7031 231.866 52.0788 232.208 52.3375 232.747C52.5962 233.286 52.6332 233.779 52.781 233.791Z" fill="#263238"/>
<path d="M57.2095 226.77C57.265 226.88 57.8255 226.712 58.5584 226.77C59.2914 226.828 59.8272 227.019 59.895 226.915C59.9627 226.811 59.4207 226.393 58.5769 226.335C57.7331 226.277 57.1479 226.677 57.2095 226.77Z" fill="#263238"/>
<path d="M95.9397 217.216L95.3607 229.767C95.3607 229.767 108.714 234.539 108.843 236.863L82.9742 236.672L83.0358 217.088L95.9397 217.216Z" fill="#455A64"/>
<path d="M87.3657 228.648C87.1154 228.717 86.901 228.871 86.7635 229.08C86.626 229.288 86.575 229.537 86.6204 229.779C86.6861 230.017 86.8458 230.221 87.0668 230.352C87.2878 230.482 87.5534 230.528 87.8092 230.48C88.0733 230.406 88.2988 230.242 88.4421 230.021C88.5854 229.799 88.6364 229.535 88.5853 229.28C88.487 229.043 88.2951 228.85 88.0497 228.742C87.8042 228.634 87.5239 228.619 87.2672 228.701" fill="#E0E0E0"/>
<path d="M82.9557 236.672L83.0481 234.701L107.833 235.605C107.833 235.605 108.979 236.087 108.843 236.846L82.9557 236.672Z" fill="#D6F5D7"/>
<path d="M95.7795 229.646C95.7795 229.762 95.1636 229.814 94.5168 230.191C93.8701 230.567 93.556 231.066 93.4389 231.02C93.3219 230.973 93.519 230.283 94.2828 229.86C95.0465 229.437 95.8103 229.535 95.7795 229.646Z" fill="#263238"/>
<path d="M98.4894 230.718C98.4894 230.834 97.9659 231.037 97.5347 231.536C97.1036 232.034 96.9681 232.567 96.8449 232.562C96.7217 232.556 96.6416 231.878 97.196 231.269C97.7503 230.66 98.4833 230.608 98.4894 230.718Z" fill="#263238"/>
<path d="M100.005 233.791C99.8876 233.791 99.7151 233.211 100.048 232.567C100.38 231.924 100.972 231.669 101.021 231.767C101.07 231.866 100.707 232.208 100.442 232.747C100.177 233.286 100.128 233.779 100.005 233.791Z" fill="#263238"/>
<path d="M95.576 226.77C95.5206 226.88 94.9601 226.712 94.2271 226.77C93.4942 226.828 92.9521 227.019 92.8905 226.915C92.829 226.811 93.3648 226.393 94.2086 226.335C95.0525 226.277 95.6376 226.677 95.576 226.77Z" fill="#263238"/>
<path d="M51.3151 122.642C51.3151 123.407 56.5567 226.66 56.5567 226.66L70.1688 226.782L74.5912 138.967C74.5912 138.967 80.2824 185.109 80.2824 186.13C80.2824 187.15 81.8962 227.292 81.8962 227.292H96.2598V131.576L87.0208 117.557L51.3151 122.642Z" fill="#263238"/>
<path d="M88.9302 227.28C88.9206 227.203 88.9206 227.125 88.9302 227.048C88.9302 226.88 88.9302 226.654 88.9302 226.364C88.9302 225.744 88.9302 224.863 88.9302 223.732C88.8933 221.442 88.8194 218.132 88.6962 214.045C88.4313 205.864 87.9386 194.577 87.3288 182.106C86.719 169.636 86.0969 158.337 85.6781 150.168C85.4687 146.11 85.2962 142.794 85.1792 140.492C85.1299 139.362 85.0929 138.475 85.0621 137.86C85.0621 137.57 85.0621 137.344 85.0621 137.176C85.054 137.097 85.054 137.017 85.0621 136.938C85.0813 137.014 85.0916 137.092 85.0929 137.17C85.0929 137.338 85.0929 137.564 85.1484 137.854C85.1853 138.475 85.2469 139.356 85.3209 140.486C85.4625 142.805 85.6658 146.087 85.9368 150.157C86.4234 158.325 87.0578 169.613 87.6799 182.089C88.302 194.565 88.7516 205.859 88.9549 214.039C89.0534 218.132 89.0904 221.442 89.0904 223.726C89.0904 224.886 89.0904 225.744 89.0904 226.364C89.0904 226.654 89.0904 226.88 89.0904 227.048C89.047 227.131 88.9932 227.209 88.9302 227.28Z" fill="#455A64"/>
<path d="M63.8495 136.95C63.9357 136.95 63.9295 157.044 63.8495 181.834C63.7694 206.624 63.6031 226.724 63.5169 226.724C63.4306 226.724 63.4368 206.63 63.5169 181.834C63.5969 157.038 63.7632 136.944 63.8495 136.95Z" fill="#455A64"/>
<path d="M75.6813 134.034C75.4887 134.148 75.2818 134.24 75.0654 134.306C74.6404 134.457 74.0183 134.672 73.2545 134.927L73.1129 134.973V134.828C73.0266 133.558 72.9219 131.86 72.8295 129.999C72.7248 127.981 72.6509 126.155 72.614 124.833C72.614 124.172 72.614 123.633 72.614 123.268C72.5854 123.076 72.5854 122.88 72.614 122.688C72.6673 122.878 72.6983 123.072 72.7063 123.268C72.7433 123.633 72.7864 124.167 72.8357 124.827C72.9281 126.149 73.0389 127.975 73.1375 129.993C73.236 131.854 73.3038 133.553 73.3408 134.822L73.1868 134.724C73.9629 134.492 74.5911 134.312 75.0346 134.19C75.2427 134.114 75.4598 134.061 75.6813 134.034Z" fill="#455A64"/>
<path d="M74.468 123.059C74.468 123.059 74.5173 122.978 74.6774 122.92C74.9135 122.855 75.167 122.878 75.3857 122.984C75.5597 123.059 75.7047 123.183 75.8007 123.338C75.8967 123.494 75.9389 123.674 75.9216 123.853C75.9022 124.073 75.8096 124.282 75.657 124.45C75.5044 124.617 75.2996 124.735 75.0716 124.787C74.8402 124.822 74.6031 124.789 74.3918 124.694C74.1805 124.599 74.0051 124.445 73.889 124.253C73.8151 124.127 73.7705 123.988 73.7581 123.844C73.7457 123.7 73.7657 123.556 73.8169 123.42C73.8681 123.284 73.9493 123.16 74.0552 123.056C74.161 122.952 74.2891 122.87 74.431 122.816C74.5912 122.758 74.6836 122.769 74.6897 122.816C74.6959 122.862 74.3263 122.937 74.1046 123.395C74.0394 123.515 74.0085 123.648 74.015 123.783C74.0214 123.917 74.0651 124.047 74.1415 124.161C74.2324 124.296 74.3626 124.403 74.5167 124.47C74.6708 124.537 74.8421 124.56 75.01 124.538C75.1717 124.497 75.3167 124.412 75.4265 124.293C75.5363 124.174 75.6058 124.027 75.626 123.871C75.6419 123.741 75.6172 123.61 75.5548 123.494C75.4924 123.377 75.395 123.281 75.2749 123.216C75.033 123.078 74.7481 123.023 74.468 123.059Z" fill="#455A64"/>
<path d="M81.81 124.143C81.7238 124.143 81.6068 123.691 81.5452 123.123C81.4836 122.555 81.5021 122.079 81.5883 122.068C81.6745 122.056 81.7916 122.52 81.8593 123.088C81.9271 123.656 81.9024 124.132 81.81 124.143Z" fill="#455A64"/>
<path d="M82.9248 124.039C82.8324 124.039 82.7647 123.552 82.7585 122.949C82.7524 122.346 82.8263 121.859 82.9125 121.859C82.9988 121.859 83.0727 122.346 83.0727 122.949C83.0727 123.552 83.0111 124.039 82.9248 124.039Z" fill="#455A64"/>
<path d="M63.6338 124.764C63.329 123.97 63.2297 123.119 63.3443 122.282C63.6491 123.076 63.7484 123.927 63.6338 124.764Z" fill="#455A64"/>
<path d="M64.9518 124.874C64.6707 124.499 64.5338 124.045 64.5638 123.587C64.4918 123.133 64.5898 122.67 64.8409 122.277C64.9009 122.707 64.9133 123.142 64.8779 123.575C64.9524 124.004 64.9772 124.44 64.9518 124.874Z" fill="#455A64"/>
<path d="M44.9402 240.864L49.4427 244.742C51.1528 246.22 53.3914 247.037 55.7129 247.032H96.8696C99.1847 247.033 101.416 246.216 103.121 244.742L107.624 240.864H44.9402Z" fill="#0D0C5D"/>
<path d="M109.435 236.411H43.7021V240.997H109.435V236.411Z" fill="#0D0C5D"/>
<path d="M38.3189 222.578H37.2348C34.8638 222.578 32.9418 224.388 32.9418 226.619V251.931C32.9418 254.163 34.8638 255.972 37.2348 255.972H38.3189C40.6899 255.972 42.6119 254.163 42.6119 251.931V226.619C42.6119 224.388 40.6899 222.578 38.3189 222.578Z" fill="#263238"/>
<path d="M38.1525 255.525C38.0663 255.525 37.8507 248.366 37.6783 239.524C37.5058 230.683 37.438 223.523 37.5304 223.523C37.6228 223.523 37.8261 230.683 37.9985 239.519C38.171 248.354 38.2388 255.525 38.1525 255.525Z" fill="#455A64"/>
<path d="M37.8508 253.033C36.9508 252.128 36.1271 251.159 35.387 250.134C34.553 249.162 33.8072 248.127 33.1573 247.038C34.0573 247.942 34.8811 248.912 35.6211 249.937C36.4526 250.91 37.1983 251.945 37.8508 253.033Z" fill="#455A64"/>
<path d="M38.1155 249.16C37.1788 248.161 36.3203 247.099 35.5471 245.983C34.6861 244.926 33.9138 243.807 33.2373 242.638C34.1741 243.637 35.0325 244.699 35.8057 245.815C36.6653 246.873 37.4374 247.991 38.1155 249.16Z" fill="#455A64"/>
<path d="M37.5305 244.209C36.6315 243.14 35.8202 242.008 35.1037 240.823C34.2857 239.696 33.5569 238.514 32.9233 237.287C33.833 238.354 34.6565 239.484 35.3871 240.667C36.1911 241.797 36.9074 242.981 37.5305 244.209Z" fill="#455A64"/>
<path d="M37.5304 240.174C37.2352 239.864 36.9846 239.519 36.7851 239.148C36.3601 238.492 35.7935 237.576 35.1837 236.562C34.5739 235.547 34.038 234.614 33.6685 233.936C33.4354 233.585 33.2531 233.207 33.1265 232.811C33.4145 233.136 33.6643 233.49 33.8717 233.866C34.2967 234.521 34.8634 235.431 35.467 236.446C36.0706 237.461 36.6065 238.382 36.9822 239.061C37.2082 239.411 37.392 239.785 37.5304 240.174Z" fill="#455A64"/>
<path d="M37.438 235.739C36.4889 234.707 35.6799 233.567 35.0297 232.347C34.4138 231.362 33.9518 230.457 33.6131 229.796C33.3993 229.449 33.2356 229.077 33.1265 228.689C33.9234 229.82 34.6513 230.993 35.3069 232.202C35.892 233.176 36.4279 234.057 36.8282 234.689C37.0701 235.018 37.2745 235.37 37.438 235.739Z" fill="#455A64"/>
<path d="M36.8776 231.135C36.232 230.232 35.6715 229.278 35.2022 228.283C34.6405 227.33 34.1725 226.331 33.8041 225.297C34.4574 226.197 35.0203 227.152 35.4856 228.15C36.0483 229.102 36.5143 230.101 36.8776 231.135Z" fill="#455A64"/>
<path d="M42.1993 246.487C41.7131 247.644 41.1303 248.762 40.4562 249.832C39.8736 250.949 39.1959 252.019 38.4298 253.032C38.9198 251.876 39.5046 250.758 40.1791 249.687C40.7601 248.571 41.4357 247.501 42.1993 246.487Z" fill="#455A64"/>
<path d="M42.0885 241.681C41.7298 242.932 41.1976 244.133 40.5055 245.252C39.982 246.197 39.4831 247.038 39.1012 247.641C38.9256 247.984 38.6996 248.302 38.4298 248.586C38.9452 247.39 39.544 246.228 40.2222 245.107C40.7457 244.162 41.2015 243.304 41.528 242.678C41.6738 242.327 41.8619 241.992 42.0885 241.681Z" fill="#455A64"/>
<path d="M42.1992 235.281C41.7219 236.668 41.1457 238.024 40.4746 239.339C39.8997 240.688 39.2288 241.999 38.4667 243.264C38.9447 241.876 39.523 240.52 40.1974 239.206C40.7674 237.855 41.4363 236.544 42.1992 235.281Z" fill="#455A64"/>
<path d="M41.682 231.663C41.3679 232.781 40.9559 233.873 40.4501 234.927C40.038 236.018 39.5269 237.073 38.9226 238.081C39.2299 236.961 39.6421 235.868 40.1545 234.817C40.5666 233.726 41.0777 232.671 41.682 231.663Z" fill="#455A64"/>
<path d="M41.2446 227.373C41.0681 228.513 40.7132 229.623 40.1914 230.666C39.7663 231.749 39.1727 232.767 38.4298 233.686C38.3497 233.64 39.1258 232.289 39.8957 230.55C40.6656 228.811 41.1522 227.35 41.2446 227.373Z" fill="#455A64"/>
<path d="M34.1552 222.271L43.7021 238.214V224.955C43.7107 224.309 43.4509 223.685 42.9782 223.216C42.5054 222.747 41.8569 222.471 41.1706 222.445L34.1552 222.271Z" fill="#0D0C5D"/>
<path d="M43.7021 230.051H42.0884V242.464H43.7021V230.051Z" fill="#0D0C5D"/>
<path d="M115.514 255.96H116.598C118.969 255.96 120.891 254.151 120.891 251.919V226.613C120.891 224.382 118.969 222.573 116.598 222.573H115.514C113.143 222.573 111.221 224.382 111.221 226.613V251.919C111.221 254.151 113.143 255.96 115.514 255.96Z" fill="#263238"/>
<path d="M115.68 255.514C115.588 255.514 115.68 248.348 115.834 239.513C115.988 230.677 116.216 223.506 116.302 223.512C116.388 223.518 116.302 230.677 116.148 239.519C115.994 248.36 115.766 255.52 115.68 255.514Z" fill="#455A64"/>
<path d="M115.988 252.998C117.388 250.877 118.966 248.864 120.706 246.98C120.052 248.074 119.307 249.117 118.477 250.099C117.73 251.126 116.898 252.095 115.988 252.998Z" fill="#455A64"/>
<path d="M115.711 249.148C116.392 247.981 117.164 246.863 118.021 245.803C118.792 244.684 119.653 243.622 120.595 242.626C119.912 243.795 119.138 244.915 118.279 245.977C117.51 247.094 116.651 248.154 115.711 249.148Z" fill="#455A64"/>
<path d="M116.302 244.197C116.931 242.97 117.651 241.786 118.458 240.655C119.177 239.474 119.988 238.344 120.885 237.275C119.541 239.686 118.009 242 116.302 244.197Z" fill="#455A64"/>
<path d="M116.302 240.162C116.437 239.768 116.621 239.391 116.85 239.037C117.22 238.359 117.756 237.432 118.359 236.417C118.963 235.402 119.536 234.492 119.955 233.837C120.158 233.465 120.411 233.118 120.706 232.805C120.57 233.196 120.388 233.571 120.164 233.924C119.788 234.602 119.253 235.53 118.643 236.55C118.033 237.571 117.466 238.481 117.041 239.136C116.842 239.506 116.594 239.851 116.302 240.162Z" fill="#455A64"/>
<path d="M116.395 235.727C116.562 235.359 116.768 235.007 117.011 234.678C117.405 234.046 117.941 233.165 118.526 232.191C119.182 230.981 119.912 229.808 120.712 228.677C120.6 229.064 120.436 229.436 120.226 229.785C119.881 230.446 119.388 231.356 118.803 232.336C118.149 233.554 117.34 234.692 116.395 235.727Z" fill="#455A64"/>
<path d="M116.949 231.124C117.317 230.091 117.785 229.091 118.347 228.138C118.814 227.142 119.374 226.187 120.022 225.286C119.658 226.32 119.192 227.319 118.63 228.272C118.164 229.269 117.601 230.223 116.949 231.124Z" fill="#455A64"/>
<path d="M111.627 246.476C113.07 248.55 114.33 250.731 115.397 252.998C114.63 251.986 113.954 250.915 113.377 249.798C112.703 248.734 112.118 247.624 111.627 246.476Z" fill="#455A64"/>
<path d="M111.763 241.669C111.991 241.983 112.181 242.319 112.329 242.672C112.65 243.299 113.112 244.157 113.629 245.102C114.31 246.221 114.909 247.383 115.421 248.58C115.155 248.294 114.929 247.976 114.75 247.635C114.374 247.055 113.869 246.192 113.346 245.247C112.656 244.123 112.124 242.921 111.763 241.669Z" fill="#455A64"/>
<path d="M111.627 235.269C112.395 236.534 113.07 237.848 113.648 239.2C114.322 240.513 114.898 241.869 115.372 243.258C114.608 241.992 113.935 240.679 113.358 239.327C112.684 238.013 112.105 236.657 111.627 235.269Z" fill="#455A64"/>
<path d="M112.145 231.651C112.754 232.657 113.265 233.713 113.672 234.805C114.179 235.859 114.591 236.951 114.904 238.069C114.3 237.061 113.789 236.006 113.377 234.915C112.868 233.862 112.456 232.77 112.145 231.651Z" fill="#455A64"/>
<path d="M112.588 227.361C112.674 227.361 113.155 228.805 113.931 230.538C114.707 232.272 115.477 233.628 115.397 233.675C114.004 231.777 113.047 229.627 112.588 227.361Z" fill="#455A64"/>
<path d="M118.994 221.918L109.435 237.571V224.59C109.434 223.951 109.698 223.337 110.171 222.878C110.644 222.419 111.287 222.152 111.966 222.132L118.994 221.918Z" fill="#0D0C5D"/>
<path d="M111.221 229.39H109.435V240.997H111.221V229.39Z" fill="#0D0C5D"/>
<path d="M111.233 241.032C111.233 241.113 95.687 241.183 76.5192 241.183C57.3513 241.183 41.799 241.113 41.799 241.032C41.799 240.951 57.339 240.881 76.5192 240.881C95.6993 240.881 111.233 240.951 111.233 241.032Z" fill="#263238"/>
<path d="M48.0876 146.214C48.0876 146.214 47.6687 139.901 42.1685 140.556C36.6682 141.211 36.5203 145.866 36.5203 145.866L34.1552 145.472C34.1552 145.472 35.0298 138.875 42.7782 139.06C50.5267 139.246 50.3727 146.661 50.3727 146.661L48.0876 146.214Z" fill="#455A64"/>
<g opacity="0.3">
<path d="M48.0876 146.214C48.0876 146.214 47.6687 139.901 42.1685 140.556C36.6682 141.211 36.5203 145.866 36.5203 145.866L34.1552 145.472C34.1552 145.472 35.0298 138.875 42.7782 139.06C50.5267 139.246 50.3727 146.661 50.3727 146.661L48.0876 146.214Z" fill="black"/>
</g>
<path d="M22.243 144.382L21.0358 174.193L62.9254 174.918L63.6399 145.461L22.243 144.382Z" fill="#455A64"/>
<path d="M63.6399 145.461C63.6399 145.461 63.6399 145.507 63.566 145.582L63.3134 145.913C63.067 146.226 62.7344 146.643 62.3218 147.177C61.4471 148.267 60.203 149.855 58.5769 151.762C56.7128 154.032 54.5941 156.106 52.2574 157.948C50.8626 159.017 49.3339 159.92 47.7057 160.638C45.9288 161.426 44.0064 161.881 42.0452 161.978C40.0915 162.034 38.1479 161.692 36.3478 160.975C34.6784 160.311 33.1251 159.414 31.7406 158.314C29.4313 156.425 27.4906 154.17 26.0063 151.652C24.991 149.975 24.066 148.251 23.2346 146.487L22.5632 145.049L22.3969 144.672C22.36 144.585 22.3476 144.539 22.3538 144.539C22.3814 144.578 22.4061 144.618 22.4277 144.661L22.6248 145.026L23.3516 146.44C23.9676 147.664 24.8853 149.449 26.2034 151.542C27.7018 154.017 29.6391 156.233 31.9316 158.093C33.2983 159.169 34.8284 160.047 36.471 160.696C38.2239 161.389 40.114 161.721 42.0144 161.67C43.9213 161.582 45.7915 161.145 47.5209 160.383C49.1407 159.684 50.6632 158.8 52.0541 157.751C54.3812 155.929 56.4992 153.883 58.3736 151.646C60.0243 149.762 61.2993 148.197 62.1986 147.124L63.2395 145.901L63.5228 145.582C63.5575 145.538 63.5967 145.498 63.6399 145.461Z" fill="#263238"/>
<path d="M57.1911 174.819C57.0987 174.819 58.3737 168.384 60.0306 160.482C61.6874 152.58 63.1102 146.185 63.1903 146.203C63.2704 146.22 62.0077 152.638 60.3509 160.54C58.694 168.442 57.2774 174.836 57.1911 174.819Z" fill="#263238"/>
<path d="M63.4613 145.687C63.4719 145.785 63.4719 145.884 63.4613 145.982C63.4613 146.214 63.4613 146.498 63.4613 146.84C63.4305 147.582 63.3565 148.649 63.258 149.977C63.0547 152.62 62.6975 156.273 62.2602 160.296C61.8229 164.32 61.4533 167.926 61.17 170.61C61.0406 171.897 60.9359 172.929 60.862 173.735L60.7696 174.587C60.766 174.688 60.7473 174.787 60.7142 174.883C60.6968 174.783 60.6968 174.681 60.7142 174.581C60.7142 174.349 60.7142 174.071 60.7142 173.729C60.7142 172.987 60.8189 171.914 60.9174 170.593C61.1207 167.943 61.4779 164.297 61.9153 160.267C62.3526 156.238 62.7221 152.638 63.0055 149.959C63.1348 148.672 63.2395 147.64 63.3134 146.829C63.3565 146.493 63.3873 146.208 63.412 145.982C63.4127 145.882 63.4293 145.782 63.4613 145.687Z" fill="#263238"/>
<path d="M41.5181 160.863L40.2679 160.884L40.3078 163.075L41.5579 163.055L41.5181 160.863Z" fill="#263238"/>
<path d="M63.64 145.461C63.5008 145.475 63.3604 145.475 63.2211 145.461H61.9893L57.5607 145.403L42.9692 145.084L28.3777 144.672L23.9553 144.51L22.7235 144.452C22.5847 144.452 22.4464 144.439 22.3108 144.411C22.45 144.397 22.5904 144.397 22.7296 144.411H23.9615L28.3839 144.475L42.9815 144.794L57.573 145.206L61.9954 145.368L63.2273 145.426C63.3658 145.423 63.5042 145.435 63.64 145.461Z" fill="#263238"/>
<path d="M40.6841 128.891C40.6841 128.891 37.9371 136.051 37.8508 137.188C37.7646 138.324 36.545 140.139 37.9309 140.562C37.9309 140.562 37.6968 141.443 39.1628 141.762C39.1628 141.762 39.1628 143.263 41.0968 143.101C41.0968 143.101 42.4211 144.324 43.5113 143.681C43.5113 143.681 45.1989 144.469 45.8888 143.31C46.4229 142.343 46.8879 141.343 47.2808 140.318L48.3771 141.13C48.7698 140.301 48.8837 139.378 48.7036 138.486C48.3833 137.095 46.5109 135.332 46.9297 133.593C47.0378 132.965 47.226 132.352 47.4902 131.767L40.6841 128.891Z" fill="#FFBE9D"/>
<g opacity="0.3">
<path d="M55.1524 155.27C53.5979 158.714 51.1368 161.729 48.0014 164.03C45.7902 165.711 43.037 167.05 40.2098 166.772C37.7461 166.529 35.578 165.091 33.7795 163.473C30.1354 160.207 27.4748 156.09 26.068 151.542C26.068 151.542 32.8433 162.07 40.9058 161.925C48.1739 161.763 55.1524 155.27 55.1524 155.27Z" fill="black"/>
</g>
<path d="M83.6393 61.6815C83.6393 61.6815 94.6707 63.8265 96.0319 65.3976C97.1221 66.6499 102.912 79.3521 102.912 79.3521L107.581 87.1439C108.563 87.8937 109.284 88.9034 109.65 90.0426C110.232 92.5973 110.513 95.2045 110.488 97.817C110.488 97.817 109.656 102.942 106.25 103.156C104.646 103.218 103.045 102.978 101.539 102.453C100.033 101.928 98.6536 101.126 97.4793 100.095C95.4899 98.42 90.624 87.0627 90.7964 86.483L83.6393 61.6815Z" fill="#0D0C5D"/>
<path d="M63.4306 59.3625L63.911 58.8407L68.9371 64.1976L72.9714 68.3544L78.0283 58.29L79.4942 59.3045C79.4942 59.3045 84.939 98.0954 84.8467 98.5476C84.7543 98.9998 86.9531 120.172 86.9531 120.172C86.9531 120.172 75.3674 122.34 72.0106 121.332C68.6537 120.323 61.1886 121.911 61.2379 121.587C61.2872 121.262 58.035 108.299 58.035 108.299L58.9897 72.7488L63.4306 59.3625Z" fill="#99E79B"/>
<path d="M84.9882 115.43C84.704 115.393 84.4237 115.333 84.1506 115.25C83.6209 115.117 82.8571 114.902 81.9209 114.601C79.4882 113.823 77.1205 112.875 74.8376 111.766C72.5554 110.655 70.3629 109.388 68.2779 107.974C67.4772 107.429 66.8428 106.971 66.4301 106.641C66.2069 106.48 66.0006 106.3 65.8142 106.102C66.0646 106.232 66.3036 106.382 66.5287 106.548C66.9722 106.849 67.6251 107.284 68.4319 107.806C70.5481 109.157 72.7466 110.39 75.0163 111.499C77.2897 112.599 79.6326 113.567 82.0318 114.398C82.9495 114.717 83.7009 114.978 84.2183 115.134C84.4838 115.211 84.7415 115.31 84.9882 115.43Z" fill="#263238"/>
<path d="M72.9591 68.3544C72.9752 68.5008 72.9752 68.6485 72.9591 68.795C72.9591 69.108 72.9591 69.5313 72.9591 70.053C72.9591 71.1835 72.9591 72.7604 72.9221 74.691C72.9221 78.6101 72.8913 84.0249 72.9714 90.0021C73.0515 95.9793 73.2055 101.4 73.3287 105.313C73.3903 107.25 73.4395 108.826 73.4765 109.951C73.4765 110.473 73.4765 110.896 73.4765 111.209C73.494 111.356 73.494 111.503 73.4765 111.65C73.4472 111.506 73.4307 111.361 73.4272 111.215C73.4272 110.896 73.3718 110.479 73.341 109.951C73.2671 108.861 73.187 107.273 73.0946 105.313C72.916 101.394 72.725 95.9793 72.6388 89.9963C72.5526 84.0133 72.6019 78.5985 72.6881 74.6794C72.7312 72.7199 72.7743 71.1314 72.8236 70.0414C72.8236 69.5139 72.8667 69.0965 72.879 68.7776C72.892 68.6345 72.9188 68.4929 72.9591 68.3544Z" fill="#263238"/>
<path d="M75.5274 119.952C75.328 118.607 75.2313 117.251 75.2379 115.894C75.1342 114.543 75.1342 113.186 75.2379 111.835C75.4373 113.18 75.534 114.536 75.5274 115.894C75.631 117.245 75.631 118.601 75.5274 119.952Z" fill="#263238"/>
<path d="M63.1348 59.8437L59.4084 63.6816C59.4084 63.6816 54.7089 64.7599 49.3995 66.4238C48.3327 66.8396 47.3799 67.4777 46.6129 68.2901C45.8458 69.1024 45.2844 70.0679 44.9709 71.114C44.5706 72.3836 51.3397 103.145 51.3397 103.145L50.1694 112.003L46.5601 137.553C46.5601 137.553 52.8179 139.652 56.8338 139.802C59.0943 139.889 59.47 131.558 60.4247 125.784C61.3425 120.207 63.72 102.351 63.72 97.3765C63.72 92.4022 62.6175 68.4297 62.6175 67.9138C62.6175 67.3978 63.1348 59.8437 63.1348 59.8437Z" fill="#0D0C5D"/>
<path d="M62.9931 104.809C62.93 104.66 62.8805 104.507 62.8453 104.351C62.7529 104.02 62.6359 103.586 62.4819 103.035C62.1739 101.875 61.7366 100.2 61.2069 98.1707C60.1537 94.0313 58.7432 88.3614 57.1171 82.1001C56.6736 80.3203 56.2363 78.5926 55.8236 76.9346V76.8882V76.8476L58.9033 69.6819L59.0203 69.8501H55.9961H55.7928L55.8976 69.6877C57.1294 67.7108 58.1457 66.1049 58.8664 64.9628L59.6855 63.6874C59.7741 63.534 59.8772 63.3885 59.9935 63.2526C59.9196 63.4138 59.8353 63.5706 59.741 63.7222L58.9711 65.0266C58.2812 66.1861 57.3019 67.8036 56.1008 69.7979L55.9961 69.6356H59.0203H59.2174L59.1435 69.8095C58.2504 71.9546 57.2341 74.3779 56.1439 76.9925V76.9056C56.5628 78.5579 56.9939 80.2855 57.4436 82.0653L61.441 98.1533C61.9337 100.194 62.3341 101.858 62.6174 103.041C62.7467 103.62 62.8515 104.044 62.9254 104.374C62.9585 104.517 62.9811 104.663 62.9931 104.809Z" fill="#263238"/>
<path d="M79.4695 59.1479L81.8593 61.1945L95.5638 64.8469L95.7486 85.451L93.7037 106.107L97.8982 136.944C93.1432 139.408 86.0477 138.88 86.0477 138.88L82.7894 120.862C82.2781 117.499 80.4981 94.8371 80.4981 94.8371L79.4695 59.1479Z" fill="#0D0C5D"/>
<path d="M84.3969 101C84.3977 100.846 84.4142 100.693 84.4462 100.542C84.5016 100.223 84.5694 99.7882 84.6556 99.2491C84.8465 98.0896 85.1114 96.4837 85.4378 94.5009C86.0538 90.4891 86.9099 84.9351 87.6429 78.784C88.0063 75.7056 88.3142 72.772 88.5729 70.0878C88.6961 68.7544 88.807 67.4848 88.9179 66.2905C88.9671 65.7107 89.0657 65.0962 88.7208 64.7136C88.5204 64.5538 88.28 64.4449 88.0224 64.3972C87.7647 64.3495 87.4984 64.3646 87.2487 64.4411C86.7426 64.5566 86.2234 64.6131 85.7027 64.6092C85.2309 64.5731 84.776 64.4277 84.3784 64.186C83.7645 63.7874 83.2376 63.2816 82.8263 62.6961C82.4814 62.2265 82.2103 61.8496 82.0872 61.5887C81.9963 61.4613 81.92 61.3253 81.8593 61.1829C81.961 61.3022 82.0536 61.4281 82.1364 61.5598C82.315 61.8032 82.5676 62.1743 82.9248 62.6265C83.3421 63.1845 83.8664 63.6643 84.4708 64.0411C84.8429 64.2588 85.2657 64.3881 85.7027 64.4179C86.2079 64.415 86.7106 64.3526 87.1994 64.2324C87.4811 64.1795 87.769 64.1619 88.0555 64.1802C88.3772 64.1997 88.6779 64.3371 88.8932 64.5628C89.1013 64.8055 89.2125 65.1091 89.2074 65.4209C89.2135 65.7189 89.2012 66.017 89.1704 66.3137C89.0657 67.5022 88.961 68.7776 88.8501 70.111C88.6099 72.7894 88.3081 75.7288 87.9447 78.8072C87.2117 84.9641 86.3433 90.5181 85.6473 94.5241C85.29 96.5242 84.9882 98.1417 84.7665 99.2607C84.6556 99.794 84.5632 100.223 84.4955 100.542C84.4784 100.697 84.4454 100.851 84.3969 101Z" fill="#263238"/>
<path d="M93.6729 79.2768C92.935 79.4416 92.1756 79.5041 91.4186 79.4623C90.663 79.5241 89.902 79.4851 89.1581 79.3463C89.8993 79.1894 90.6599 79.1289 91.4186 79.1666C92.1718 79.1042 92.9306 79.1413 93.6729 79.2768Z" fill="#263238"/>
<g opacity="0.3">
<path d="M96.1181 90.0891C97.0393 88.9358 98.3708 88.1332 99.8691 87.8281C100.232 87.7585 100.713 87.7701 100.855 88.0889C100.89 88.2216 100.885 88.361 100.84 88.4911C100.796 88.6213 100.713 88.7371 100.602 88.8252L100.14 89.3528C98.7025 90.636 97.7946 92.3574 97.5778 94.2111C97.297 93.3572 97.3069 92.442 97.6062 91.5937C97.9055 90.7454 98.4792 90.0064 99.247 89.4803C97.7811 89.7586 96.6662 90.8427 95.6499 91.8747C95.5612 91.5641 95.5575 91.2373 95.6394 90.9251C95.7213 90.6128 95.886 90.3251 96.1181 90.0891Z" fill="black"/>
</g>
<path d="M95.0833 92.3616C95.0833 92.3616 95.2558 92.1066 95.5699 91.7297C95.9743 91.2324 96.4512 90.7913 96.9865 90.4195C97.5239 90.0502 98.1125 89.7517 98.7358 89.5325C99.2162 89.3702 99.5242 89.3064 99.5242 89.2832C99.5242 89.26 99.4379 89.2832 99.2963 89.2832C99.0883 89.3182 98.8826 89.3647 98.6803 89.4223C97.3825 89.8202 96.2551 90.6008 95.4652 91.6486C95.3483 91.8068 95.2414 91.9714 95.1449 92.1413C95.1326 92.2863 95.071 92.3558 95.0833 92.3616Z" fill="#263238"/>
<path d="M97.7627 95.4285C97.7627 95.4285 97.7627 95.0227 97.7627 94.3734C97.7867 93.9956 97.8382 93.6198 97.9167 93.2487C98.0222 92.7935 98.1622 92.3459 98.3355 91.9095C98.5237 91.4789 98.746 91.0622 99.0007 90.663C99.2129 90.3397 99.4474 90.0298 99.7029 89.7354C100.14 89.2368 100.467 88.9759 100.454 88.9528C100.367 89.0039 100.287 89.0642 100.214 89.1325C100.14 89.1905 100.048 89.2658 99.9492 89.3586C99.8507 89.4513 99.7398 89.5499 99.6289 89.6774C99.3576 89.9662 99.1105 90.2744 98.8898 90.5992C98.6273 91.0022 98.4007 91.4249 98.2123 91.8631C98.0304 92.3047 97.8902 92.7606 97.7935 93.2255C97.7183 93.6082 97.675 93.9959 97.6641 94.385C97.6546 94.5317 97.6546 94.6789 97.6641 94.8256C97.6565 94.9376 97.6565 95.0499 97.6641 95.1618C97.6853 95.2542 97.7184 95.3437 97.7627 95.4285Z" fill="#263238"/>
<path d="M95.5515 73.2068C95.5689 73.3125 95.5689 73.42 95.5515 73.5257C95.5515 73.775 95.5515 74.0765 95.5515 74.4475C95.5146 75.2939 95.4653 76.4418 95.4037 77.839C95.2436 80.7377 95.028 84.6684 94.7878 89.0165C94.5475 93.3646 94.2581 97.2895 94.0733 100.188C93.9686 101.58 93.8885 102.728 93.8207 103.568C93.8207 103.939 93.7592 104.246 93.7407 104.49C93.7375 104.598 93.7188 104.705 93.6852 104.809C93.6764 104.701 93.6764 104.592 93.6852 104.484C93.6852 104.241 93.6852 103.904 93.6852 103.562C93.7222 102.716 93.7776 101.568 93.8392 100.171C93.9994 97.2721 94.2149 93.3414 94.4551 88.9933C94.6954 84.6452 94.9787 80.7262 95.1635 77.8274C95.2682 76.4302 95.3544 75.2881 95.416 74.4417C95.453 74.0707 95.4776 73.7692 95.5022 73.5257C95.5059 73.418 95.5224 73.3111 95.5515 73.2068Z" fill="#263238"/>
<path d="M48.5558 67.1949C48.5558 67.1949 45.4391 68.279 44.5892 72.7489C43.7392 77.2187 38.4298 131.918 38.4298 131.918L47.4101 132.405L51.8264 102.635L48.5558 67.1949Z" fill="#0D0C5D"/>
<path d="M51.8262 103.261C51.9186 103.261 50.9331 110.218 49.6273 118.792C48.3215 127.367 47.1636 134.289 47.1081 134.271C47.0527 134.254 48.0074 127.315 49.307 118.746C50.6066 110.177 51.74 103.249 51.8262 103.261Z" fill="#263238"/>
<path d="M49.3872 77.2013C49.4796 77.2013 50.0955 82.9988 50.7669 90.2166C51.4382 97.4344 51.9187 103.255 51.8263 103.267C51.7339 103.278 51.1241 97.4692 50.4466 90.2456C49.7691 83.0219 49.301 77.2071 49.3872 77.2013Z" fill="#263238"/>
<path d="M72.9591 68.6384C72.7207 68.4887 72.4979 68.3178 72.2939 68.1282L70.5632 66.6557L70.7541 66.6093C70.1998 68.0993 69.4298 70.0878 68.5737 72.2734L68.4751 72.5285L68.2965 72.3198L68.1733 72.1691C66.7225 70.4697 65.4826 68.6199 64.4777 66.6557C64.0897 65.902 63.8125 65.2759 63.6401 64.8411C63.5349 64.6181 63.4564 64.3847 63.406 64.1454C63.5439 64.3513 63.6614 64.5686 63.7571 64.7947C63.9665 65.2179 64.2683 65.8208 64.681 66.5339C65.7413 68.4544 66.9997 70.2719 68.4382 71.9604L68.5614 72.1053L68.2842 72.1459C69.1465 69.9602 69.9411 67.9833 70.5447 66.5108L70.6124 66.3542L70.7356 66.4702L72.3925 68.0123C72.6059 68.2002 72.7959 68.4103 72.9591 68.6384Z" fill="#263238"/>
<path d="M79.568 62.7308C79.5978 62.958 79.5978 63.1878 79.568 63.4149C79.5187 63.9135 79.4571 64.5338 79.3832 65.2643C79.2108 66.8296 78.9459 68.9863 78.6441 71.3691V71.5546L78.5887 71.943L78.3485 71.6183C76.9072 69.6704 75.626 67.9022 74.7206 66.6325H74.8931L73.5442 67.9022C73.3866 68.0659 73.2111 68.2136 73.0206 68.3428C73.1427 68.1541 73.2896 67.9807 73.4579 67.8268L74.7329 66.4876L74.8253 66.3948L74.9054 66.4992C75.8601 67.7398 77.172 69.4849 78.601 71.4386L78.3115 71.5024V71.3227C78.6195 68.9399 78.9274 66.7891 79.143 65.2295C79.26 64.4991 79.3524 63.8845 79.4325 63.386C79.452 63.1636 79.4975 62.9439 79.568 62.7308Z" fill="#263238"/>
<path d="M45.71 127.773C45.71 127.773 45.827 127.738 46.0303 127.773C46.3209 127.854 46.5677 128.036 46.7201 128.283C46.8255 128.45 46.8965 128.635 46.9296 128.828C46.9675 129.061 46.9288 129.3 46.8187 129.512C46.695 129.753 46.5018 129.956 46.261 130.099C46.0203 130.241 45.7419 130.317 45.4575 130.318C45.1741 130.277 44.9112 130.154 44.7058 129.966C44.5003 129.778 44.3626 129.534 44.3118 129.268C44.2649 129.061 44.2741 128.847 44.3387 128.644C44.4033 128.441 44.5212 128.257 44.6814 128.109C44.8868 127.904 45.161 127.773 45.4575 127.738C45.6669 127.738 45.7778 127.738 45.7716 127.778C45.4166 127.837 45.092 128.004 44.8477 128.254C44.7259 128.385 44.6393 128.542 44.5954 128.712C44.5515 128.881 44.5514 129.058 44.5952 129.228C44.6429 129.43 44.7531 129.615 44.9121 129.758C45.071 129.901 45.2715 129.997 45.4883 130.034C45.7099 130.028 45.9258 129.967 46.1133 129.855C46.3009 129.744 46.4531 129.587 46.5538 129.402C46.6381 129.247 46.6821 129.076 46.6821 128.903C46.6821 128.73 46.6381 128.559 46.5538 128.404C46.2089 127.831 45.6854 127.819 45.71 127.773Z" fill="#263238"/>
<path d="M94.9046 116.995C94.9046 116.995 86.6819 117.575 87.0391 117.453L89.4043 121.65L97.0666 121.14L94.9046 116.995Z" fill="#0D0C5D"/>
<path d="M94.9047 116.995C94.9715 117.078 95.0293 117.168 95.0772 117.262L95.533 118.068C95.9518 118.833 96.5123 119.853 97.1837 121.088L97.2637 121.245H97.079L89.4167 121.79H89.312L89.2628 121.703L89.1765 121.552C88.3758 120.114 87.6059 118.752 86.9037 117.494L87.0823 117.563C87.0823 117.563 87.1439 117.563 87.1255 117.413C87.107 117.262 87.0269 117.337 87.0392 117.331H87.3965H87.8153L88.6345 117.291L90.1497 117.215L92.6504 117.088L94.2765 117.018C94.4712 117.005 94.6668 117.005 94.8616 117.018C94.6728 117.068 94.4785 117.097 94.2826 117.105L92.6627 117.25L90.1682 117.441L88.6468 117.546L87.8276 117.598H87.4088H87.1871H86.9345C86.9345 117.598 86.9345 117.627 86.8421 117.505C86.7497 117.384 86.9037 117.355 86.8853 117.355H86.9284L87.0454 117.32L87.107 117.424L89.3983 121.482L89.4845 121.639L89.3305 121.558L96.9989 121.076L96.8942 121.25L95.3851 118.23L94.9725 117.378C94.9337 117.253 94.9109 117.125 94.9047 116.995Z" fill="#263238"/>
<path d="M57.1849 117.986L49.7321 116.995L48.1553 121.65L55.7682 122.688L57.1849 117.986Z" fill="#0D0C5D"/>
<path d="M57.1851 117.986C57.1761 118.093 57.1533 118.198 57.1173 118.299L56.8709 119.239C56.6492 120.056 56.3228 121.256 55.8916 122.717V122.816H55.7746L48.2417 121.819H48.1555H47.9707L48.0261 121.645C48.5928 119.987 49.1348 118.415 49.6214 117.007L49.6584 116.897H49.7754C52.0112 117.204 53.8898 117.476 55.1956 117.685L56.7046 117.923C56.876 117.94 57.0451 117.973 57.2097 118.021C57.2097 118.021 56.9941 118.021 56.5938 117.975L55.0416 117.807C53.7235 117.656 51.8757 117.447 49.7076 117.169L49.8678 117.076C49.3874 118.491 48.8576 120.068 48.3033 121.714L48.174 121.517H48.2602L55.7869 122.555L55.6452 122.642C56.0826 121.245 56.4644 120.091 56.7354 119.273C56.8586 118.897 56.9633 118.584 57.0557 118.323C57.0892 118.208 57.1325 118.095 57.1851 117.986Z" fill="#263238"/>
<path d="M109.047 70.9574C109.186 71.0267 109.309 71.1221 109.407 71.2378C109.506 71.3535 109.578 71.4869 109.619 71.6299C109.673 71.8524 109.645 72.0855 109.539 72.2908L106.146 79.4043L103.934 83.5901L97.4055 82.1059L101.625 72.1923C101.625 72.1923 101.97 70.8241 103.3 70.8241H108.486C108.682 70.8214 108.876 70.8674 109.047 70.9574Z" fill="#455A64"/>
<path d="M107.568 72.7488H108.418C108.48 72.7476 108.541 72.7308 108.594 72.7003C108.647 72.6697 108.691 72.6264 108.72 72.5749C108.748 72.5261 108.762 72.4713 108.76 72.4159C108.759 72.3605 108.742 72.3065 108.711 72.2591C108.681 72.2117 108.638 72.1726 108.587 72.1456C108.535 72.1187 108.477 72.1048 108.418 72.1053H107.568C107.503 72.1053 107.44 72.1227 107.385 72.1556C107.331 72.1885 107.287 72.2354 107.26 72.2908C107.237 72.3398 107.227 72.3935 107.231 72.4471C107.235 72.5006 107.253 72.5525 107.283 72.5978C107.314 72.6432 107.356 72.6808 107.406 72.7071C107.455 72.7335 107.511 72.7478 107.568 72.7488Z" fill="#D6F5D7"/>
<path d="M108.683 90.7847C108.917 90.3209 108.067 89.6252 108.067 89.6252C108.067 89.6252 107.032 84.9235 107.451 84.1234C107.87 83.3234 107.661 82.3378 107.735 80.6797C107.809 79.0217 108.449 78.4303 108.449 78.4303C108.449 78.4303 108.505 77.3694 108.646 76.5114C108.719 75.9714 108.569 75.4257 108.227 74.9866L106.158 79.4275L105.819 79.0275C104.913 77.7484 103.775 76.6298 102.456 75.7229C101.791 75.3867 101.286 76.0128 101.095 76.4998C100.904 76.9868 101.668 77.8332 102.142 78.1405C102.616 78.4477 103.374 80.4189 103.651 81.1377C103.928 81.8566 103.651 82.0132 103.171 82.2972C102.69 82.5813 100.861 81.1377 99.9738 80.7957C99.183 80.3792 98.466 79.8491 97.8489 79.2246C97.6813 79.1041 97.4816 79.0296 97.2718 79.0091C97.0621 78.9887 96.8504 79.0231 96.6601 79.1086C95.9641 79.4043 96.2782 80.6797 96.2782 80.6797C95.1757 81.4682 95.7485 82.9987 95.7485 82.9987C95.7485 82.9987 94.646 83.0799 94.5721 83.4277C94.4982 83.7756 94.8739 85.6424 95.4898 86.0946C96.1058 86.5468 98.742 88.286 98.742 88.286C99.3305 89.1276 100.153 89.8013 101.119 90.234L101.637 92.6747C102.767 92.9862 103.968 92.9862 105.098 92.6747C106.438 92.3258 107.667 91.6774 108.683 90.7847Z" fill="#FFBE9D"/>
<path d="M96.2845 80.5349C96.2845 80.5349 96.2845 80.5349 96.2845 80.5986C96.2763 80.6583 96.2763 80.7187 96.2845 80.7783C96.3238 81 96.4165 81.2102 96.5555 81.3929C96.7593 81.6597 97.0066 81.8945 97.2884 82.0886C97.6026 82.3089 97.9598 82.5234 98.3478 82.7437C99.0077 83.1097 99.6953 83.4294 100.405 83.7003C100.676 83.7988 100.904 83.8742 101.058 83.9206L101.304 83.9843C101.304 83.9843 100.972 83.8452 100.442 83.6191C99.7443 83.3289 99.0656 82.9998 98.4094 82.6335C97.734 82.3132 97.1298 81.8744 96.6294 81.3407C96.4396 81.1061 96.3204 80.8278 96.2845 80.5349Z" fill="#EB996E"/>
<path d="M95.7917 83.0045C95.9182 83.1986 96.0715 83.376 96.2475 83.5321C96.6537 83.9287 97.1062 84.2807 97.5964 84.5814C98.0877 84.8821 98.6149 85.1273 99.1671 85.3119C99.3917 85.4007 99.6278 85.4612 99.8692 85.4916C99.8692 85.4916 99.6105 85.3931 99.204 85.2308C98.6685 85.026 98.1549 84.7736 97.6703 84.4771C97.1872 84.1823 96.7336 83.8466 96.3153 83.4741C95.9888 83.1842 95.8041 82.9929 95.7917 83.0045Z" fill="#EB996E"/>
<path d="M106.453 83.0277C106.615 82.9076 106.724 82.7367 106.761 82.5465C106.846 82.0966 106.834 81.6351 106.724 81.1899C106.652 80.7435 106.549 80.3019 106.417 79.8681C106.373 79.6847 106.305 79.5074 106.213 79.3405C106.235 79.527 106.274 79.7113 106.33 79.8913C106.41 80.2275 106.515 80.6913 106.601 81.2073C106.703 81.6412 106.726 82.0881 106.669 82.5291C106.622 82.7039 106.55 82.8718 106.453 83.0277Z" fill="#EB996E"/>
<path d="M103.842 85.1032C103.842 85.1032 103.922 85.1032 104.051 85.1032C104.217 85.0511 104.357 84.944 104.446 84.8018C104.532 84.6597 104.563 84.4934 104.532 84.3322C104.532 84.2104 104.452 84.1467 104.433 84.1583C104.458 84.3564 104.424 84.5571 104.335 84.738C104.15 85.0221 103.83 85.0685 103.842 85.1032Z" fill="#EB996E"/>
<path d="M101.655 86.9585C101.655 86.9585 101.754 87.0049 101.92 86.9585C102.137 86.9293 102.337 86.8311 102.487 86.6802C102.636 86.5298 102.726 86.335 102.739 86.1294C102.739 85.9729 102.739 85.8801 102.696 85.8859C102.653 85.8917 102.696 85.9787 102.653 86.1178C102.612 86.2963 102.523 86.4618 102.394 86.599C102.257 86.7287 102.088 86.8243 101.902 86.8773C101.817 86.8961 101.734 86.9233 101.655 86.9585Z" fill="#EB996E"/>
<path d="M99.7583 88.0599C99.7583 88.0599 99.8384 88.0947 99.9677 88.0599C100.134 88.0099 100.281 87.9127 100.387 87.7816C100.494 87.6501 100.552 87.4893 100.553 87.3236C100.553 87.1961 100.51 87.1265 100.497 87.1323C100.474 87.3386 100.4 87.5369 100.282 87.712C100.138 87.8647 99.9592 87.9838 99.7583 88.0599Z" fill="#EB996E"/>
<path d="M101.132 90.3441C101.269 90.4303 101.421 90.4931 101.581 90.5296C101.958 90.6468 102.343 90.7398 102.733 90.8079C103.122 90.8723 103.515 90.913 103.91 90.9297C104.073 90.9536 104.239 90.9536 104.402 90.9297C104.402 90.8949 103.657 90.8659 102.758 90.7094C101.859 90.5528 101.144 90.3093 101.132 90.3441Z" fill="#EB996E"/>
<path d="M99.0993 80.3552L99.167 80.2102L99.3395 79.7812L99.9554 78.1927C100.479 76.8361 101.187 74.9809 101.963 72.9402C102.112 72.4377 102.429 71.9941 102.869 71.6764C103.334 71.4654 103.852 71.3791 104.365 71.4271L107.032 71.456H108.831H109.299C109.356 71.4645 109.414 71.4645 109.472 71.456H109.299H108.813L107.014 71.4097L104.347 71.3575C104.089 71.3403 103.829 71.3403 103.571 71.3575C103.294 71.3822 103.027 71.4654 102.789 71.601C102.32 71.9268 101.98 72.3897 101.822 72.917C101.046 74.9751 100.35 76.8361 99.8507 78.1869L99.2717 79.787C99.204 79.9667 99.1547 80.1117 99.1177 80.2218C99.1051 80.2652 99.0989 80.3101 99.0993 80.3552Z" fill="#263238"/>
<path d="M267.262 255.566C267.262 255.647 210.596 255.717 140.718 255.717C70.8402 255.717 14.162 255.647 14.162 255.566C14.162 255.485 70.8279 255.409 140.718 255.409C210.608 255.409 267.262 255.479 267.262 255.566Z" fill="#263238"/>
</svg>
