<svg width="22" height="22" viewBox="0 0 22 22" fill="none" xmlns="http://www.w3.org/2000/svg">
<path d="M13.2814 8.71296H18.6004C18.981 8.71298 19.3553 8.80898 19.6877 8.99187C20.0201 9.17475 20.2996 9.43845 20.4997 9.75792C20.6998 10.0774 20.8139 10.442 20.8311 10.8172C20.8482 11.1924 20.7679 11.5657 20.5978 11.9017L16.6901 19.6147C16.5046 19.981 16.2194 20.2891 15.8663 20.5043C15.5133 20.7196 15.1065 20.8335 14.6916 20.8333H10.2066C10.0246 20.8333 9.84264 20.8113 9.66511 20.7672L5.46598 19.7315M13.2814 8.71296V3.2037C13.2814 2.61925 13.0462 2.05872 12.6274 1.64545C12.2086 1.23218 11.6407 1 11.0485 1H10.9424C10.3841 1 9.93196 1.44625 9.93196 1.99718C9.93196 2.7839 9.69638 3.55299 9.25313 4.20749L5.46598 9.81481V19.7315M13.2814 8.71296H11.0485M5.46598 19.7315H3.23299C2.64076 19.7315 2.07279 19.4993 1.65403 19.086C1.23526 18.6728 1 18.1122 1 17.5278V10.9167C1 10.3322 1.23526 9.77169 1.65403 9.35841C2.07279 8.94514 2.64076 8.71296 3.23299 8.71296H6.02423" stroke="white" stroke-linecap="round" stroke-linejoin="round"/>
</svg>
